<svg xmlns="http://www.w3.org/2000/svg" xmlns:xlink="http://www.w3.org/1999/xlink" width="370" zoomAndPan="magnify" viewBox="0 0 277.5 123.750003" height="165" preserveAspectRatio="xMidYMid meet" version="1.0"><defs><g/><linearGradient x1="-1.500001" gradientTransform="matrix(1, 0, 0, 1, 0.00000147608, 0.00000203917)" y1="1.5" x2="286.903647" gradientUnits="userSpaceOnUse" y2="1.5" id="0afa6481a1"><stop stop-opacity="1" stop-color="rgb(0%, 0%, 0%)" offset="0"/><stop stop-opacity="1" stop-color="rgb(0.0579834%, 0.0579834%, 0.0579834%)" offset="0.0078125"/><stop stop-opacity="1" stop-color="rgb(0.296021%, 0.296021%, 0.296021%)" offset="0.015625"/><stop stop-opacity="1" stop-color="rgb(0.65155%, 0.65155%, 0.65155%)" offset="0.0234375"/><stop stop-opacity="1" stop-color="rgb(1.008606%, 1.008606%, 1.008606%)" offset="0.03125"/><stop stop-opacity="1" stop-color="rgb(1.364136%, 1.364136%, 1.364136%)" offset="0.0390625"/><stop stop-opacity="1" stop-color="rgb(1.719666%, 1.719666%, 1.719666%)" offset="0.046875"/><stop stop-opacity="1" stop-color="rgb(2.076721%, 2.076721%, 2.076721%)" offset="0.0546875"/><stop stop-opacity="1" stop-color="rgb(2.432251%, 2.432251%, 2.432251%)" offset="0.0625"/><stop stop-opacity="1" stop-color="rgb(2.787781%, 2.787781%, 2.787781%)" offset="0.0703125"/><stop stop-opacity="1" stop-color="rgb(3.144836%, 3.144836%, 3.144836%)" offset="0.078125"/><stop stop-opacity="1" stop-color="rgb(3.500366%, 3.500366%, 3.500366%)" offset="0.0859375"/><stop stop-opacity="1" stop-color="rgb(3.855896%, 3.855896%, 3.855896%)" offset="0.09375"/><stop stop-opacity="1" stop-color="rgb(4.212952%, 4.212952%, 4.212952%)" offset="0.101562"/><stop stop-opacity="1" stop-color="rgb(4.568481%, 4.568481%, 4.568481%)" offset="0.109375"/><stop stop-opacity="1" stop-color="rgb(4.924011%, 4.924011%, 4.924011%)" offset="0.117188"/><stop stop-opacity="1" stop-color="rgb(5.281067%, 5.281067%, 5.281067%)" offset="0.125"/><stop stop-opacity="1" stop-color="rgb(5.636597%, 5.636597%, 5.636597%)" offset="0.132813"/><stop stop-opacity="1" stop-color="rgb(5.992126%, 5.992126%, 5.992126%)" offset="0.140625"/><stop stop-opacity="1" stop-color="rgb(6.349182%, 6.349182%, 6.349182%)" offset="0.148438"/><stop stop-opacity="1" stop-color="rgb(6.704712%, 6.704712%, 6.704712%)" offset="0.15625"/><stop stop-opacity="1" stop-color="rgb(7.060242%, 7.060242%, 7.060242%)" offset="0.164062"/><stop stop-opacity="1" stop-color="rgb(7.417297%, 7.417297%, 7.417297%)" offset="0.171875"/><stop stop-opacity="1" stop-color="rgb(7.772827%, 7.772827%, 7.772827%)" offset="0.179688"/><stop stop-opacity="1" stop-color="rgb(8.128357%, 8.128357%, 8.128357%)" offset="0.1875"/><stop stop-opacity="1" stop-color="rgb(8.485413%, 8.485413%, 8.485413%)" offset="0.195312"/><stop stop-opacity="1" stop-color="rgb(8.840942%, 8.840942%, 8.840942%)" offset="0.203125"/><stop stop-opacity="1" stop-color="rgb(9.196472%, 9.196472%, 9.196472%)" offset="0.210938"/><stop stop-opacity="1" stop-color="rgb(9.553528%, 9.553528%, 9.553528%)" offset="0.21875"/><stop stop-opacity="1" stop-color="rgb(9.909058%, 9.909058%, 9.909058%)" offset="0.226562"/><stop stop-opacity="1" stop-color="rgb(10.264587%, 10.264587%, 10.264587%)" offset="0.234375"/><stop stop-opacity="1" stop-color="rgb(10.621643%, 10.621643%, 10.621643%)" offset="0.242187"/><stop stop-opacity="1" stop-color="rgb(10.977173%, 10.977173%, 10.977173%)" offset="0.25"/><stop stop-opacity="1" stop-color="rgb(11.332703%, 11.332703%, 11.332703%)" offset="0.257812"/><stop stop-opacity="1" stop-color="rgb(11.689758%, 11.689758%, 11.689758%)" offset="0.265625"/><stop stop-opacity="1" stop-color="rgb(12.045288%, 12.045288%, 12.045288%)" offset="0.273437"/><stop stop-opacity="1" stop-color="rgb(12.400818%, 12.400818%, 12.400818%)" offset="0.28125"/><stop stop-opacity="1" stop-color="rgb(12.757874%, 12.757874%, 12.757874%)" offset="0.289062"/><stop stop-opacity="1" stop-color="rgb(13.113403%, 13.113403%, 13.113403%)" offset="0.296875"/><stop stop-opacity="1" stop-color="rgb(13.468933%, 13.468933%, 13.468933%)" offset="0.304688"/><stop stop-opacity="1" stop-color="rgb(13.825989%, 13.825989%, 13.825989%)" offset="0.3125"/><stop stop-opacity="1" stop-color="rgb(14.181519%, 14.181519%, 14.181519%)" offset="0.320312"/><stop stop-opacity="1" stop-color="rgb(14.537048%, 14.537048%, 14.537048%)" offset="0.328125"/><stop stop-opacity="1" stop-color="rgb(14.894104%, 14.894104%, 14.894104%)" offset="0.335938"/><stop stop-opacity="1" stop-color="rgb(15.249634%, 15.249634%, 15.249634%)" offset="0.34375"/><stop stop-opacity="1" stop-color="rgb(15.605164%, 15.605164%, 15.605164%)" offset="0.351562"/><stop stop-opacity="1" stop-color="rgb(15.962219%, 15.962219%, 15.962219%)" offset="0.359375"/><stop stop-opacity="1" stop-color="rgb(16.317749%, 16.317749%, 16.317749%)" offset="0.367187"/><stop stop-opacity="1" stop-color="rgb(16.673279%, 16.673279%, 16.673279%)" offset="0.375"/><stop stop-opacity="1" stop-color="rgb(17.030334%, 17.030334%, 17.030334%)" offset="0.382812"/><stop stop-opacity="1" stop-color="rgb(17.385864%, 17.385864%, 17.385864%)" offset="0.390625"/><stop stop-opacity="1" stop-color="rgb(17.741394%, 17.741394%, 17.741394%)" offset="0.398437"/><stop stop-opacity="1" stop-color="rgb(18.09845%, 18.09845%, 18.09845%)" offset="0.40625"/><stop stop-opacity="1" stop-color="rgb(18.453979%, 18.453979%, 18.453979%)" offset="0.414062"/><stop stop-opacity="1" stop-color="rgb(18.809509%, 18.809509%, 18.809509%)" offset="0.421875"/><stop stop-opacity="1" stop-color="rgb(19.166565%, 19.166565%, 19.166565%)" offset="0.429688"/><stop stop-opacity="1" stop-color="rgb(19.522095%, 19.522095%, 19.522095%)" offset="0.4375"/><stop stop-opacity="1" stop-color="rgb(19.877625%, 19.877625%, 19.877625%)" offset="0.445312"/><stop stop-opacity="1" stop-color="rgb(20.23468%, 20.23468%, 20.23468%)" offset="0.453125"/><stop stop-opacity="1" stop-color="rgb(20.59021%, 20.59021%, 20.59021%)" offset="0.460937"/><stop stop-opacity="1" stop-color="rgb(20.94574%, 20.94574%, 20.94574%)" offset="0.46875"/><stop stop-opacity="1" stop-color="rgb(21.302795%, 21.302795%, 21.302795%)" offset="0.476562"/><stop stop-opacity="1" stop-color="rgb(21.658325%, 21.658325%, 21.658325%)" offset="0.484375"/><stop stop-opacity="1" stop-color="rgb(22.015381%, 22.015381%, 22.015381%)" offset="0.492187"/><stop stop-opacity="1" stop-color="rgb(22.370911%, 22.370911%, 22.370911%)" offset="0.5"/><stop stop-opacity="1" stop-color="rgb(22.72644%, 22.72644%, 22.72644%)" offset="0.507812"/><stop stop-opacity="1" stop-color="rgb(23.083496%, 23.083496%, 23.083496%)" offset="0.515625"/><stop stop-opacity="1" stop-color="rgb(23.439026%, 23.439026%, 23.439026%)" offset="0.523437"/><stop stop-opacity="1" stop-color="rgb(23.794556%, 23.794556%, 23.794556%)" offset="0.53125"/><stop stop-opacity="1" stop-color="rgb(24.151611%, 24.151611%, 24.151611%)" offset="0.539062"/><stop stop-opacity="1" stop-color="rgb(24.507141%, 24.507141%, 24.507141%)" offset="0.546875"/><stop stop-opacity="1" stop-color="rgb(24.862671%, 24.862671%, 24.862671%)" offset="0.554687"/><stop stop-opacity="1" stop-color="rgb(25.219727%, 25.219727%, 25.219727%)" offset="0.5625"/><stop stop-opacity="1" stop-color="rgb(25.575256%, 25.575256%, 25.575256%)" offset="0.570312"/><stop stop-opacity="1" stop-color="rgb(25.930786%, 25.930786%, 25.930786%)" offset="0.578125"/><stop stop-opacity="1" stop-color="rgb(26.287842%, 26.287842%, 26.287842%)" offset="0.585937"/><stop stop-opacity="1" stop-color="rgb(26.643372%, 26.643372%, 26.643372%)" offset="0.59375"/><stop stop-opacity="1" stop-color="rgb(26.998901%, 26.998901%, 26.998901%)" offset="0.601562"/><stop stop-opacity="1" stop-color="rgb(27.355957%, 27.355957%, 27.355957%)" offset="0.609375"/><stop stop-opacity="1" stop-color="rgb(27.711487%, 27.711487%, 27.711487%)" offset="0.617188"/><stop stop-opacity="1" stop-color="rgb(28.067017%, 28.067017%, 28.067017%)" offset="0.625"/><stop stop-opacity="1" stop-color="rgb(28.424072%, 28.424072%, 28.424072%)" offset="0.632812"/><stop stop-opacity="1" stop-color="rgb(28.779602%, 28.779602%, 28.779602%)" offset="0.640625"/><stop stop-opacity="1" stop-color="rgb(29.135132%, 29.135132%, 29.135132%)" offset="0.648438"/><stop stop-opacity="1" stop-color="rgb(29.492188%, 29.492188%, 29.492188%)" offset="0.65625"/><stop stop-opacity="1" stop-color="rgb(29.847717%, 29.847717%, 29.847717%)" offset="0.664062"/><stop stop-opacity="1" stop-color="rgb(30.203247%, 30.203247%, 30.203247%)" offset="0.671875"/><stop stop-opacity="1" stop-color="rgb(30.560303%, 30.560303%, 30.560303%)" offset="0.679687"/><stop stop-opacity="1" stop-color="rgb(30.915833%, 30.915833%, 30.915833%)" offset="0.6875"/><stop stop-opacity="1" stop-color="rgb(31.271362%, 31.271362%, 31.271362%)" offset="0.695312"/><stop stop-opacity="1" stop-color="rgb(31.628418%, 31.628418%, 31.628418%)" offset="0.703125"/><stop stop-opacity="1" stop-color="rgb(31.983948%, 31.983948%, 31.983948%)" offset="0.710937"/><stop stop-opacity="1" stop-color="rgb(32.339478%, 32.339478%, 32.339478%)" offset="0.71875"/><stop stop-opacity="1" stop-color="rgb(32.696533%, 32.696533%, 32.696533%)" offset="0.726562"/><stop stop-opacity="1" stop-color="rgb(33.052063%, 33.052063%, 33.052063%)" offset="0.734375"/><stop stop-opacity="1" stop-color="rgb(33.407593%, 33.407593%, 33.407593%)" offset="0.742187"/><stop stop-opacity="1" stop-color="rgb(33.764648%, 33.764648%, 33.764648%)" offset="0.75"/><stop stop-opacity="1" stop-color="rgb(34.120178%, 34.120178%, 34.120178%)" offset="0.757812"/><stop stop-opacity="1" stop-color="rgb(34.475708%, 34.475708%, 34.475708%)" offset="0.765625"/><stop stop-opacity="1" stop-color="rgb(34.832764%, 34.832764%, 34.832764%)" offset="0.773437"/><stop stop-opacity="1" stop-color="rgb(35.188293%, 35.188293%, 35.188293%)" offset="0.78125"/><stop stop-opacity="1" stop-color="rgb(35.543823%, 35.543823%, 35.543823%)" offset="0.789062"/><stop stop-opacity="1" stop-color="rgb(35.900879%, 35.900879%, 35.900879%)" offset="0.796875"/><stop stop-opacity="1" stop-color="rgb(36.256409%, 36.256409%, 36.256409%)" offset="0.804688"/><stop stop-opacity="1" stop-color="rgb(36.611938%, 36.611938%, 36.611938%)" offset="0.8125"/><stop stop-opacity="1" stop-color="rgb(36.968994%, 36.968994%, 36.968994%)" offset="0.820312"/><stop stop-opacity="1" stop-color="rgb(37.324524%, 37.324524%, 37.324524%)" offset="0.828125"/><stop stop-opacity="1" stop-color="rgb(37.680054%, 37.680054%, 37.680054%)" offset="0.835937"/><stop stop-opacity="1" stop-color="rgb(38.037109%, 38.037109%, 38.037109%)" offset="0.84375"/><stop stop-opacity="1" stop-color="rgb(38.392639%, 38.392639%, 38.392639%)" offset="0.851562"/><stop stop-opacity="1" stop-color="rgb(38.748169%, 38.748169%, 38.748169%)" offset="0.859375"/><stop stop-opacity="1" stop-color="rgb(39.105225%, 39.105225%, 39.105225%)" offset="0.867187"/><stop stop-opacity="1" stop-color="rgb(39.460754%, 39.460754%, 39.460754%)" offset="0.875"/><stop stop-opacity="1" stop-color="rgb(39.816284%, 39.816284%, 39.816284%)" offset="0.882812"/><stop stop-opacity="1" stop-color="rgb(40.17334%, 40.17334%, 40.17334%)" offset="0.890625"/><stop stop-opacity="1" stop-color="rgb(40.52887%, 40.52887%, 40.52887%)" offset="0.898437"/><stop stop-opacity="1" stop-color="rgb(40.884399%, 40.884399%, 40.884399%)" offset="0.90625"/><stop stop-opacity="1" stop-color="rgb(41.241455%, 41.241455%, 41.241455%)" offset="0.914062"/><stop stop-opacity="1" stop-color="rgb(41.596985%, 41.596985%, 41.596985%)" offset="0.921875"/><stop stop-opacity="1" stop-color="rgb(41.952515%, 41.952515%, 41.952515%)" offset="0.929687"/><stop stop-opacity="1" stop-color="rgb(42.30957%, 42.30957%, 42.30957%)" offset="0.9375"/><stop stop-opacity="1" stop-color="rgb(42.6651%, 42.6651%, 42.6651%)" offset="0.945312"/><stop stop-opacity="1" stop-color="rgb(43.022156%, 43.022156%, 43.022156%)" offset="0.953125"/><stop stop-opacity="1" stop-color="rgb(43.377686%, 43.377686%, 43.377686%)" offset="0.960937"/><stop stop-opacity="1" stop-color="rgb(43.733215%, 43.733215%, 43.733215%)" offset="0.96875"/><stop stop-opacity="1" stop-color="rgb(44.090271%, 44.090271%, 44.090271%)" offset="0.976562"/><stop stop-opacity="1" stop-color="rgb(44.445801%, 44.445801%, 44.445801%)" offset="0.984375"/><stop stop-opacity="1" stop-color="rgb(44.801331%, 44.801331%, 44.801331%)" offset="0.992188"/><stop stop-opacity="1" stop-color="rgb(45.039368%, 45.039368%, 45.039368%)" offset="1"/></linearGradient><clipPath id="7a43f12b82"><path d="M 141 52.386719 L 142 52.386719 L 142 53 L 141 53 Z M 141 52.386719 " clip-rule="nonzero"/></clipPath><clipPath id="a536fc1cd8"><path d="M 130.546875 52.386719 L 145.515625 52.386719 L 145.515625 69.554688 L 130.546875 69.554688 Z M 130.546875 52.386719 " clip-rule="nonzero"/></clipPath></defs><path fill="#000000" d="M 132.703125 28.824219 C 132.703125 30.398438 133.601562 32.867188 135.507812 35.339844 C 135.734375 35.679688 135.960938 35.902344 136.292969 36.242188 L 136.292969 39.949219 C 135.058594 39.277344 132.363281 37.816406 129.222656 37.140625 C 129.667969 38.714844 129.113281 40.0625 127.308594 40.0625 C 125.964844 40.0625 124.953125 39.277344 123.605469 39.277344 C 122.148438 39.277344 121.25 40.0625 121.25 40.960938 C 121.25 41.859375 121.363281 42.871094 122.035156 43.996094 C 121.808594 43.996094 118.890625 42.984375 118.890625 40.960938 C 118.890625 39.050781 119.792969 37.703125 121.136719 36.917969 C 113.839844 37.925781 108 41.410156 102.722656 45.230469 C 102.945312 46.917969 103.507812 48.492188 104.292969 49.726562 C 104.519531 47.140625 105.980469 44.109375 109.460938 44.109375 C 112.382812 44.109375 115.300781 45.007812 115.972656 49.390625 C 115.1875 49.050781 114.292969 48.71875 113.054688 48.71875 C 112.042969 48.71875 110.917969 50.179688 110.917969 51.300781 C 110.917969 53.4375 112.941406 55.570312 116.308594 55.570312 C 124.953125 55.570312 127.425781 49.050781 127.3125 45.121094 L 128.660156 45.121094 C 128.660156 54.113281 122.148438 57.929688 116.308594 57.929688 C 107.664062 57.929688 102.613281 53.101562 101.042969 46.46875 C 93.625 51.976562 87.117188 57.707031 78.917969 57.707031 C 75.328125 57.707031 71.957031 56.359375 71.957031 52.3125 C 71.957031 48.265625 74.429688 47.367188 76.449219 47.367188 C 78.804688 47.367188 80.605469 49.050781 80.605469 50.625 C 80.605469 52.535156 78.695312 53.324219 77.570312 52.875 C 78.132812 52.3125 78.355469 51.75 78.355469 50.738281 C 78.355469 49.839844 77.121094 48.71875 76 48.71875 C 73.980469 48.71875 72.964844 50.289062 72.964844 52.3125 C 72.964844 54.898438 74.875 56.132812 77.570312 56.132812 C 83.296875 56.132812 85.203125 44.445312 91.046875 44.445312 C 93.855469 44.445312 94.417969 46.582031 94.417969 47.367188 C 94.417969 48.042969 94.1875 49.726562 94.1875 49.726562 C 96.324219 48.265625 98.453125 46.582031 100.8125 44.78125 C 100.703125 43.882812 100.589844 42.984375 100.589844 41.972656 C 100.589844 41.300781 100.589844 40.511719 100.703125 39.839844 C 95.535156 40.398438 93.179688 36.691406 93.179688 34.21875 C 93.179688 31.746094 94.75 29.945312 97.222656 29.945312 C 98.792969 29.945312 100.027344 31.40625 100.027344 32.867188 C 100.027344 33.992188 99.582031 34.78125 98.230469 34.78125 C 97.222656 34.78125 96.660156 33.878906 96.660156 33.320312 C 96.660156 31.96875 97.894531 32.082031 97.894531 31.632812 C 97.5625 31.183594 97 31.40625 96.546875 31.40625 C 95.652344 31.40625 94.304688 32.421875 94.304688 33.992188 C 94.304688 37.25 97.5625 38.828125 100.925781 38.601562 C 102.5 30.398438 109.910156 25.675781 117.097656 25.675781 C 122.933594 25.675781 127.761719 28.039062 132.03125 31.859375 C 131.46875 30.957031 131.015625 29.722656 131.015625 28.261719 C 131.015625 26.460938 131.695312 25 133.265625 25 C 135.285156 25 136.292969 26.347656 136.746094 27.808594 C 134.722656 27.136719 132.703125 27.476562 132.703125 28.824219 Z M 89.695312 50.851562 C 88.464844 50.851562 87 52.988281 85.320312 55.347656 C 86.445312 54.785156 89.25 53.324219 90.707031 52.089844 C 90.707031 51.523438 90.597656 50.851562 89.695312 50.851562 Z M 103.621094 39.277344 C 102.945312 40.738281 102.613281 42.199219 102.613281 43.433594 C 106.320312 40.847656 110.359375 38.261719 115.078125 36.578125 C 111.371094 37.25 106.988281 38.375 103.621094 39.277344 Z M 120.015625 27.472656 C 120.800781 28.375 120.910156 28.484375 120.910156 29.5 C 120.910156 31.183594 120.015625 32.308594 117.433594 32.308594 C 116.195312 32.308594 114.960938 31.859375 113.953125 31.859375 C 109.6875 31.859375 106.425781 34.667969 104.515625 37.703125 C 108.898438 36.464844 115.1875 34.667969 122.710938 34.667969 C 122.257812 34.332031 122.035156 33.769531 122.035156 32.980469 C 122.035156 31.96875 122.488281 31.183594 123.832031 30.621094 C 123.722656 32.644531 124.953125 33.433594 127.425781 33.433594 C 129.335938 33.433594 129.898438 34.105469 129.898438 35.003906 L 129.667969 35.679688 C 132.03125 36.355469 134.613281 37.25 135.734375 37.703125 C 130.34375 31.296875 125.179688 27.585938 120.015625 27.472656 Z M 135.734375 20.28125 C 135.507812 19.382812 134.835938 17.359375 133.710938 17.359375 C 131.132812 17.359375 128.773438 19.15625 126.191406 19.15625 C 124.28125 19.15625 121.808594 17.699219 121.808594 15.5625 C 121.808594 14.660156 122.484375 14.101562 123.382812 13.988281 C 123.273438 14.324219 123.15625 14.660156 123.15625 15 C 123.15625 15.671875 123.605469 16.238281 124.28125 16.238281 C 126.523438 16.238281 128.324219 14.546875 130.570312 14.546875 C 131.238281 14.546875 131.917969 14.773438 132.585938 15 C 131.242188 13.988281 129.335938 12.976562 127.648438 12.640625 C 122.035156 11.738281 114.738281 8.703125 115.523438 2.859375 C 115.746094 0.949219 117.320312 0.0546875 118.667969 0.277344 C 117.996094 0.839844 117.320312 1.285156 117.320312 2.1875 C 117.320312 5.445312 121.472656 5.558594 123.832031 5.558594 C 126.300781 5.558594 131.46875 4.996094 131.46875 8.933594 C 131.46875 10.277344 130.34375 11.292969 129.113281 11.515625 C 132.480469 13.199219 135.84375 15.449219 136.632812 19.382812 Z M 197.039062 57.707031 C 188.84375 57.707031 182.332031 51.976562 174.921875 46.46875 C 173.460938 53.101562 168.296875 57.929688 159.648438 57.929688 C 153.921875 57.929688 147.296875 54.109375 147.296875 45.121094 L 148.648438 45.121094 C 148.648438 49.054688 151.113281 55.570312 159.648438 55.570312 C 163.019531 55.570312 165.039062 53.4375 165.039062 51.300781 C 165.039062 50.179688 163.917969 48.71875 162.90625 48.71875 C 161.671875 48.71875 160.773438 49.054688 159.988281 49.390625 C 160.660156 45.007812 163.578125 44.109375 166.5 44.109375 C 170.09375 44.109375 171.441406 47.140625 171.664062 49.726562 C 172.449219 48.492188 173.011719 46.917969 173.238281 45.234375 C 167.960938 41.410156 162.121094 37.925781 154.824219 36.917969 C 156.167969 37.703125 157.066406 39.050781 157.066406 40.960938 C 157.066406 42.984375 154.148438 43.996094 153.921875 43.996094 C 154.59375 42.871094 154.710938 41.859375 154.710938 40.960938 C 154.710938 40.0625 153.921875 39.277344 152.351562 39.277344 C 151.003906 39.277344 149.996094 40.0625 148.648438 40.0625 C 146.851562 40.0625 146.289062 38.714844 146.738281 37.140625 C 143.59375 37.816406 140.898438 39.277344 139.667969 39.949219 L 139.667969 36.242188 L 140.5625 35.339844 C 142.46875 32.871094 143.257812 30.398438 143.257812 28.824219 C 143.257812 27.476562 141.238281 27.136719 139.214844 27.8125 C 139.667969 26.351562 140.675781 25 142.695312 25 C 144.265625 25 144.941406 26.464844 144.941406 28.261719 C 144.941406 29.722656 144.492188 30.957031 143.933594 31.859375 C 148.308594 28.039062 153.023438 25.675781 158.859375 25.675781 C 166.164062 25.675781 173.457031 30.398438 175.035156 38.601562 C 178.398438 38.828125 181.65625 37.253906 181.65625 33.996094 C 181.65625 32.421875 180.421875 31.410156 179.414062 31.410156 C 178.960938 31.410156 178.398438 31.183594 178.066406 31.632812 C 178.066406 32.082031 179.300781 31.972656 179.300781 33.320312 C 179.300781 33.878906 178.851562 34.78125 177.726562 34.78125 C 176.378906 34.78125 175.929688 33.996094 175.929688 32.871094 C 175.929688 31.410156 177.164062 29.949219 178.734375 29.949219 C 181.207031 29.949219 182.78125 31.746094 182.78125 34.21875 C 182.78125 36.691406 180.421875 40.398438 175.257812 39.839844 C 175.367188 40.511719 175.367188 41.300781 175.367188 41.972656 C 175.367188 42.984375 175.367188 43.882812 175.257812 44.78125 C 177.503906 46.582031 179.746094 48.269531 181.769531 49.730469 C 181.769531 49.730469 181.546875 48.042969 181.546875 47.367188 C 181.546875 46.582031 182.21875 44.445312 184.914062 44.445312 C 190.753906 44.445312 192.664062 56.136719 198.386719 56.136719 C 201.082031 56.136719 202.992188 54.898438 202.992188 52.3125 C 202.992188 50.289062 201.976562 48.71875 199.957031 48.71875 C 198.835938 48.71875 197.601562 49.839844 197.601562 50.738281 C 197.601562 51.753906 197.824219 52.3125 198.386719 52.875 C 197.261719 53.324219 195.355469 52.539062 195.355469 50.625 C 195.355469 49.054688 197.261719 47.367188 199.511719 47.367188 C 201.53125 47.367188 204 48.269531 204 52.3125 C 204 56.355469 200.636719 57.707031 197.039062 57.707031 Z M 148.308594 12.640625 C 146.625 12.976562 144.71875 13.988281 143.371094 15 C 144.042969 14.773438 144.71875 14.546875 145.390625 14.546875 C 147.636719 14.546875 149.433594 16.238281 151.675781 16.238281 C 152.464844 16.238281 152.800781 15.675781 152.800781 15 C 152.800781 14.660156 152.800781 14.324219 152.574219 13.988281 C 153.476562 14.101562 154.148438 14.660156 154.148438 15.5625 C 154.148438 17.699219 151.792969 19.15625 149.769531 19.15625 C 147.183594 19.15625 144.941406 17.359375 142.246094 17.359375 C 141.121094 17.359375 140.449219 19.382812 140.226562 20.28125 L 139.324219 19.382812 C 140.113281 15.449219 143.480469 13.199219 146.851562 11.515625 C 145.613281 11.292969 144.492188 10.277344 144.492188 8.933594 C 144.492188 4.996094 149.769531 5.558594 152.128906 5.558594 C 154.484375 5.558594 158.636719 5.445312 158.636719 2.1875 C 158.636719 1.285156 158.078125 0.839844 157.292969 0.277344 C 158.636719 0.0546875 160.210938 0.949219 160.4375 2.859375 C 161.222656 8.703125 153.921875 11.738281 148.308594 12.640625 Z M 162.007812 31.859375 C 161 31.859375 159.765625 32.308594 158.527344 32.308594 C 156.058594 32.308594 155.046875 31.183594 155.046875 29.5 C 155.046875 28.484375 155.273438 28.375 155.945312 27.472656 C 150.78125 27.585938 145.613281 31.296875 140.226562 37.703125 C 141.347656 37.25 143.933594 36.355469 146.289062 35.679688 L 146.066406 35.003906 C 146.066406 34.105469 146.625 33.429688 148.53125 33.429688 C 151.003906 33.429688 152.238281 32.644531 152.128906 30.621094 C 153.476562 31.183594 153.921875 31.96875 153.921875 32.980469 C 153.921875 33.765625 153.699219 34.328125 153.25 34.667969 C 160.773438 34.667969 167.058594 36.464844 171.550781 37.703125 C 169.53125 34.667969 166.273438 31.859375 162.007812 31.859375 Z M 172.335938 39.277344 C 168.96875 38.378906 164.59375 37.25 160.886719 36.578125 C 165.601562 38.261719 169.644531 40.847656 173.351562 43.433594 C 173.351562 42.199219 173.011719 40.738281 172.335938 39.277344 Z M 186.261719 50.851562 C 185.363281 50.851562 185.253906 51.523438 185.253906 52.089844 C 186.707031 53.324219 189.519531 54.785156 190.636719 55.347656 C 188.957031 52.988281 187.496094 50.851562 186.261719 50.851562 Z M 186.261719 50.851562 " fill-opacity="1" fill-rule="nonzero"/><path fill="#000000" d="M 29.382812 60.597656 C 29.066406 59.339844 28.125 56.511719 26.554688 56.511719 C 22.949219 56.511719 19.648438 59.027344 16.042969 59.027344 C 13.371094 59.027344 9.917969 56.984375 9.917969 54 C 9.917969 52.738281 10.863281 51.957031 12.117188 51.796875 C 11.960938 52.269531 11.800781 52.738281 11.800781 53.210938 C 11.800781 54.15625 12.425781 54.941406 13.371094 54.941406 C 16.507812 54.941406 19.023438 52.582031 22.160156 52.582031 C 23.101562 52.582031 24.046875 52.898438 24.984375 53.210938 C 23.101562 51.796875 20.4375 50.382812 18.082031 49.914062 C 10.230469 48.65625 0.03125 44.414062 1.128906 36.242188 C 1.441406 33.574219 3.640625 32.320312 5.523438 32.628906 C 4.582031 33.417969 3.640625 34.042969 3.640625 35.304688 C 3.640625 39.859375 9.445312 40.015625 12.738281 40.015625 C 16.195312 40.015625 23.417969 39.226562 23.417969 44.730469 C 23.417969 46.613281 21.847656 48.027344 20.125 48.339844 C 24.832031 50.699219 29.535156 53.84375 30.636719 59.339844 Z M 29.382812 60.597656 " fill-opacity="1" fill-rule="nonzero"/><path fill="#000000" d="M 245.617188 59.339844 C 246.71875 53.84375 251.421875 50.699219 256.128906 48.339844 C 254.40625 48.027344 252.835938 46.613281 252.835938 44.730469 C 252.835938 39.226562 260.058594 40.015625 263.515625 40.015625 C 266.808594 40.015625 272.617188 39.859375 272.617188 35.304688 C 272.617188 34.042969 271.671875 33.417969 270.734375 32.628906 C 272.617188 32.316406 274.816406 33.574219 275.125 36.242188 C 276.226562 44.414062 266.027344 48.65625 258.171875 49.914062 C 255.820312 50.382812 253.15625 51.796875 251.273438 53.210938 C 252.207031 52.898438 253.15625 52.582031 254.09375 52.582031 C 257.230469 52.582031 259.746094 54.941406 262.882812 54.941406 C 263.828125 54.941406 264.453125 54.15625 264.453125 53.210938 C 264.453125 52.738281 264.292969 52.269531 264.140625 51.796875 C 265.390625 51.957031 266.339844 52.738281 266.339844 54 C 266.339844 56.984375 262.882812 59.027344 260.210938 59.027344 C 256.605469 59.027344 253.308594 56.511719 249.699219 56.511719 C 248.128906 56.511719 247.191406 59.339844 246.871094 60.597656 Z M 245.617188 59.339844 " fill-opacity="1" fill-rule="nonzero"/><path fill="#000000" d="M 238.601562 63.109375 C 235.1875 65.617188 229.585938 68.898438 211.058594 67.027344 C 206.003906 66.527344 200.992188 65.753906 195.894531 64.976562 C 192.707031 64.523438 189.476562 64.113281 186.242188 63.792969 C 183.964844 63.566406 178.230469 62.972656 176.089844 63.199219 C 173.855469 63.429688 172.992188 64.203125 172.945312 64.613281 C 172.945312 64.703125 172.902344 64.886719 172.992188 64.980469 C 173.039062 65.253906 173.222656 65.433594 173.222656 65.617188 C 173.175781 66.027344 172.125 66.4375 171.171875 66.347656 C 170.535156 66.300781 169.894531 65.890625 169.941406 65.34375 C 170.03125 64.84375 171.625 62.882812 175.453125 62.335938 C 178.546875 61.925781 182.097656 62.335938 194.253906 63.519531 C 209.371094 65.023438 219.527344 65.070312 227.21875 62.472656 C 232.867188 60.605469 241.425781 55.773438 242.242188 48.890625 C 243.019531 42.738281 237.601562 39.777344 233.046875 39.320312 C 223.621094 38.410156 214.152344 46.703125 213.421875 52.539062 C 213.011719 55.773438 215.789062 57.550781 218.75 57.824219 C 221.894531 58.144531 224.441406 56.867188 226.671875 55.226562 C 230.679688 52.265625 231.136719 50.121094 231.269531 49.121094 C 231.40625 48.074219 231.226562 47.207031 230.726562 46.570312 C 230.3125 46.066406 229.996094 46.019531 229.449219 45.976562 C 229.222656 45.976562 228.859375 45.929688 228.902344 45.566406 C 228.949219 45.0625 229.449219 45.109375 229.632812 45.15625 C 231.136719 45.289062 233.046875 47.113281 232.679688 50.121094 C 232.046875 55.089844 225.761719 59.328125 219.023438 58.644531 C 213.515625 58.097656 211.011719 54.042969 211.511719 50.167969 C 212.332031 43.421875 222.164062 36.859375 231.589844 37.816406 C 240.058594 38.636719 245.753906 45.429688 244.839844 53.082031 C 244.292969 57.414062 241.925781 60.648438 238.601562 63.109375 Z M 238.601562 63.109375 " fill-opacity="1" fill-rule="nonzero"/><path fill="#000000" d="M 31.714844 53.746094 C 30.800781 46.089844 36.492188 39.296875 44.964844 38.476562 C 54.386719 37.519531 64.222656 44.082031 65.042969 50.828125 C 65.542969 54.703125 63.039062 58.757812 57.53125 59.304688 C 50.789062 59.988281 44.507812 55.75 43.871094 50.78125 C 43.503906 47.773438 45.417969 45.953125 46.917969 45.816406 C 47.105469 45.769531 47.605469 45.726562 47.648438 46.226562 C 47.695312 46.589844 47.332031 46.636719 47.105469 46.636719 C 46.554688 46.683594 46.238281 46.726562 45.828125 47.230469 C 45.328125 47.867188 45.144531 48.734375 45.28125 49.78125 C 45.417969 50.78125 45.871094 52.925781 49.878906 55.890625 C 52.109375 57.527344 54.660156 58.804688 57.800781 58.484375 C 60.761719 58.210938 63.539062 56.433594 63.128906 53.199219 C 62.398438 47.367188 52.929688 39.070312 43.503906 39.980469 C 38.949219 40.4375 33.535156 43.398438 34.308594 49.554688 C 35.128906 56.433594 43.6875 61.265625 49.332031 63.132812 C 57.027344 65.730469 67.183594 65.6875 82.296875 64.183594 C 94.457031 62.996094 98.003906 62.585938 101.101562 62.996094 C 104.925781 63.542969 106.519531 65.503906 106.613281 66.003906 C 106.65625 66.550781 106.019531 66.964844 105.382812 67.007812 C 104.425781 67.097656 103.378906 66.6875 103.332031 66.277344 C 103.332031 66.097656 103.515625 65.914062 103.558594 65.640625 C 103.652344 65.550781 103.605469 65.367188 103.605469 65.277344 C 103.558594 64.867188 102.695312 64.089844 100.464844 63.863281 C 98.324219 63.636719 92.585938 64.226562 90.3125 64.457031 C 87.078125 64.773438 83.84375 65.1875 80.660156 65.640625 C 75.558594 66.414062 70.550781 67.191406 65.496094 67.691406 C 46.964844 69.5625 41.367188 66.277344 37.953125 63.773438 C 34.628906 61.3125 32.261719 58.074219 31.714844 53.746094 Z M 31.714844 53.746094 " fill-opacity="1" fill-rule="nonzero"/><path stroke-linecap="butt" transform="matrix(0.748488, 0, 0, 0.748488, 31.33638, 98.905278)" fill="none" stroke-linejoin="miter" d="M -0.000591853 1.49911 L 285.402948 1.49911 " stroke="url(#0afa6481a1)" stroke-width="3" stroke-miterlimit="4"/><g clip-path="url(#7a43f12b82)"><path fill="#000000" d="M 141.140625 52.386719 C 141.148438 52.398438 141.15625 52.410156 141.164062 52.425781 C 141.15625 52.410156 141.148438 52.398438 141.140625 52.386719 " fill-opacity="1" fill-rule="nonzero"/></g><g clip-path="url(#a536fc1cd8)"><path fill="#000000" d="M 145.738281 60.578125 C 145.738281 58.03125 144.480469 55.773438 142.554688 54.394531 C 142.367188 53.027344 141.140625 52.386719 141.140625 52.386719 C 141.523438 52.882812 141.773438 53.464844 141.769531 54.085938 C 141.757812 55.027344 141.148438 55.882812 140.382812 56.429688 C 139.617188 56.976562 138.703125 57.273438 137.808594 57.5625 C 136.910156 57.855469 136 58.15625 135.242188 58.71875 C 134.515625 59.257812 133.933594 60.117188 134.042969 61.015625 C 133.839844 60.25 133.667969 59.445312 133.800781 58.652344 C 133.933594 57.839844 134.386719 57.242188 135.042969 56.769531 C 135.800781 56.191406 136.765625 55.839844 137.640625 55.464844 C 138.363281 55.152344 139.105469 54.878906 139.800781 54.5 C 140.214844 54.277344 140.609375 54 140.914062 53.640625 C 140.941406 53.605469 140.96875 53.570312 140.992188 53.539062 C 140.113281 53.179688 139.152344 52.984375 138.140625 52.984375 C 133.949219 52.984375 130.546875 56.382812 130.546875 60.578125 C 130.546875 64.738281 133.886719 68.113281 138.03125 68.175781 C 137.3125 67.207031 136.371094 66.417969 135.613281 65.476562 C 134.777344 64.4375 134.152344 63.070312 134.523438 61.789062 C 134.800781 60.824219 135.449219 60.175781 136.335938 59.695312 C 137.222656 59.21875 138.273438 59.058594 139.21875 58.707031 C 140.160156 58.355469 141.53125 58.027344 141.828125 56.929688 C 142.03125 57.828125 141.476562 58.632812 140.726562 59.160156 C 139.976562 59.691406 139.042969 60.058594 138.203125 60.433594 C 137.367188 60.808594 136.53125 61.363281 136.203125 62.222656 C 135.855469 63.128906 136.15625 64.164062 136.640625 65 C 137.128906 65.839844 137.796875 66.5625 138.277344 67.40625 C 138.609375 67.988281 138.839844 68.664062 138.832031 69.324219 C 138.835938 69.40625 138.832031 69.480469 138.816406 69.554688 C 138.816406 69.554688 139.152344 69.039062 138.972656 68.128906 C 142.777344 67.714844 145.738281 64.492188 145.738281 60.578125 " fill-opacity="1" fill-rule="nonzero"/></g><g fill="#000000" fill-opacity="1"><g transform="translate(19.653756, 89.405574)"><g><path d="M 4.5 -15.453125 L 4.5 -15.203125 C 4.25 -15.191406 4.078125 -15.132812 3.984375 -15.03125 C 3.898438 -14.9375 3.859375 -14.742188 3.859375 -14.453125 L 3.859375 -8.625 L 11.46875 -8.625 L 11.46875 -14.421875 C 11.46875 -14.703125 11.429688 -14.898438 11.359375 -15.015625 C 11.285156 -15.128906 11.109375 -15.191406 10.828125 -15.203125 L 10.828125 -15.453125 L 13.796875 -15.453125 L 13.796875 -15.203125 C 13.546875 -15.191406 13.378906 -15.132812 13.296875 -15.03125 C 13.210938 -14.9375 13.171875 -14.742188 13.171875 -14.453125 L 13.171875 -1 C 13.171875 -0.71875 13.210938 -0.523438 13.296875 -0.421875 C 13.378906 -0.328125 13.546875 -0.269531 13.796875 -0.25 L 13.796875 0 L 10.828125 0 L 10.828125 -0.25 C 11.085938 -0.269531 11.257812 -0.328125 11.34375 -0.421875 C 11.425781 -0.523438 11.46875 -0.71875 11.46875 -1 L 11.46875 -7.171875 L 3.859375 -7.171875 L 3.859375 -1 C 3.859375 -0.71875 3.898438 -0.523438 3.984375 -0.421875 C 4.078125 -0.328125 4.25 -0.269531 4.5 -0.25 L 4.5 0 L 1.53125 0 L 1.53125 -0.25 C 1.78125 -0.269531 1.945312 -0.328125 2.03125 -0.421875 C 2.125 -0.523438 2.171875 -0.71875 2.171875 -1 L 2.171875 -14.453125 C 2.171875 -14.710938 2.132812 -14.898438 2.0625 -15.015625 C 1.988281 -15.128906 1.8125 -15.191406 1.53125 -15.203125 L 1.53125 -15.453125 Z M 4.5 -15.453125 "/></g></g></g><g fill="#000000" fill-opacity="1"><g transform="translate(36.674034, 89.405574)"><g><path d="M 2.25 -6.46875 C 2.25 -5.851562 2.328125 -5.222656 2.484375 -4.578125 C 2.648438 -3.929688 2.90625 -3.34375 3.25 -2.8125 C 3.59375 -2.28125 4.03125 -1.847656 4.5625 -1.515625 C 5.101562 -1.179688 5.75 -1.015625 6.5 -1.015625 C 7.21875 -1.015625 7.84375 -1.171875 8.375 -1.484375 C 8.914062 -1.804688 9.359375 -2.226562 9.703125 -2.75 C 10.054688 -3.269531 10.316406 -3.851562 10.484375 -4.5 C 10.660156 -5.15625 10.75 -5.8125 10.75 -6.46875 C 10.75 -7.125 10.660156 -7.773438 10.484375 -8.421875 C 10.316406 -9.078125 10.054688 -9.660156 9.703125 -10.171875 C 9.359375 -10.691406 8.914062 -11.113281 8.375 -11.4375 C 7.84375 -11.769531 7.207031 -11.9375 6.46875 -11.9375 C 5.738281 -11.9375 5.109375 -11.769531 4.578125 -11.4375 C 4.046875 -11.113281 3.601562 -10.691406 3.25 -10.171875 C 2.90625 -9.648438 2.648438 -9.0625 2.484375 -8.40625 C 2.328125 -7.757812 2.25 -7.113281 2.25 -6.46875 Z M 6.5 -13.171875 C 7.414062 -13.171875 8.226562 -12.972656 8.9375 -12.578125 C 9.644531 -12.191406 10.238281 -11.6875 10.71875 -11.0625 C 11.195312 -10.4375 11.5625 -9.71875 11.8125 -8.90625 C 12.0625 -8.101562 12.1875 -7.289062 12.1875 -6.46875 C 12.1875 -5.675781 12.066406 -4.882812 11.828125 -4.09375 C 11.597656 -3.300781 11.242188 -2.585938 10.765625 -1.953125 C 10.296875 -1.316406 9.703125 -0.796875 8.984375 -0.390625 C 8.273438 0.015625 7.445312 0.21875 6.5 0.21875 C 5.550781 0.21875 4.722656 0.015625 4.015625 -0.390625 C 3.304688 -0.796875 2.710938 -1.316406 2.234375 -1.953125 C 1.765625 -2.585938 1.410156 -3.300781 1.171875 -4.09375 C 0.929688 -4.882812 0.8125 -5.675781 0.8125 -6.46875 C 0.8125 -7.289062 0.929688 -8.101562 1.171875 -8.90625 C 1.421875 -9.707031 1.78125 -10.421875 2.25 -11.046875 C 2.726562 -11.679688 3.320312 -12.191406 4.03125 -12.578125 C 4.738281 -12.972656 5.5625 -13.171875 6.5 -13.171875 Z M 6.5 -13.171875 "/></g></g></g><g fill="#000000" fill-opacity="1"><g transform="translate(51.338743, 89.405574)"><g><path d="M 0.46875 -13.328125 L 0.71875 -13.328125 C 0.75 -13.160156 0.804688 -13.054688 0.890625 -13.015625 C 0.972656 -12.972656 1.101562 -12.953125 1.28125 -12.953125 L 9.34375 -12.953125 C 9.539062 -12.953125 9.675781 -12.972656 9.75 -13.015625 C 9.820312 -13.066406 9.867188 -13.171875 9.890625 -13.328125 L 10.15625 -13.328125 L 10.15625 -11.34375 L 9.890625 -11.34375 C 9.867188 -11.507812 9.8125 -11.613281 9.71875 -11.65625 C 9.632812 -11.695312 9.507812 -11.71875 9.34375 -11.71875 L 6.03125 -11.71875 L 6.03125 -0.828125 C 6.03125 -0.628906 6.0625 -0.488281 6.125 -0.40625 C 6.1875 -0.332031 6.335938 -0.28125 6.578125 -0.25 L 6.578125 0 L 4.03125 0 L 4.03125 -0.25 C 4.257812 -0.28125 4.410156 -0.328125 4.484375 -0.390625 C 4.554688 -0.453125 4.59375 -0.597656 4.59375 -0.828125 L 4.59375 -11.71875 L 1.28125 -11.71875 C 1.101562 -11.71875 0.972656 -11.695312 0.890625 -11.65625 C 0.804688 -11.613281 0.75 -11.507812 0.71875 -11.34375 L 0.46875 -11.34375 Z M 0.46875 -13.328125 "/></g></g></g><g fill="#000000" fill-opacity="1"><g transform="translate(63.647895, 89.405574)"><g><path d="M 10.6875 -13.328125 L 10.6875 -11.34375 L 10.421875 -11.34375 C 10.398438 -11.519531 10.34375 -11.625 10.25 -11.65625 C 10.15625 -11.695312 10.023438 -11.71875 9.859375 -11.71875 L 3.4375 -11.71875 L 3.4375 -7.296875 L 7.765625 -7.296875 C 7.941406 -7.296875 8.070312 -7.316406 8.15625 -7.359375 C 8.238281 -7.410156 8.296875 -7.519531 8.328125 -7.6875 L 8.578125 -7.6875 L 8.578125 -5.6875 L 8.328125 -5.6875 C 8.296875 -5.863281 8.238281 -5.972656 8.15625 -6.015625 C 8.070312 -6.054688 7.953125 -6.078125 7.796875 -6.078125 L 3.4375 -6.078125 L 3.4375 -1.234375 L 10.046875 -1.234375 C 10.203125 -1.234375 10.320312 -1.253906 10.40625 -1.296875 C 10.488281 -1.335938 10.546875 -1.441406 10.578125 -1.609375 L 10.828125 -1.609375 L 10.828125 0.375 L 10.578125 0.375 C 10.546875 0.207031 10.488281 0.101562 10.40625 0.0625 C 10.320312 0.0195312 10.203125 0 10.046875 0 L 1.4375 0 L 1.4375 -0.25 C 1.65625 -0.269531 1.800781 -0.300781 1.875 -0.34375 C 1.957031 -0.394531 2 -0.53125 2 -0.75 L 2 -12.203125 C 2 -12.398438 1.960938 -12.53125 1.890625 -12.59375 C 1.816406 -12.664062 1.664062 -12.703125 1.4375 -12.703125 L 1.4375 -12.953125 L 9.859375 -12.953125 C 10.054688 -12.953125 10.191406 -12.972656 10.265625 -13.015625 C 10.347656 -13.054688 10.398438 -13.160156 10.421875 -13.328125 Z M 10.6875 -13.328125 "/></g></g></g><g fill="#000000" fill-opacity="1"><g transform="translate(77.145439, 89.405574)"><g><path d="M 3.984375 -12.953125 L 3.984375 -12.703125 C 3.742188 -12.671875 3.59375 -12.617188 3.53125 -12.546875 C 3.46875 -12.472656 3.4375 -12.335938 3.4375 -12.140625 L 3.4375 -1.234375 L 9.421875 -1.234375 C 9.609375 -1.234375 9.738281 -1.253906 9.8125 -1.296875 C 9.894531 -1.335938 9.953125 -1.441406 9.984375 -1.609375 L 10.234375 -1.609375 L 10.234375 0.375 L 9.984375 0.375 C 9.953125 0.207031 9.894531 0.101562 9.8125 0.0625 C 9.726562 0.0195312 9.597656 0 9.421875 0 L 1.4375 0 L 1.4375 -0.25 C 1.6875 -0.28125 1.84375 -0.332031 1.90625 -0.40625 C 1.96875 -0.476562 2 -0.613281 2 -0.8125 L 2 -12.140625 C 2 -12.335938 1.96875 -12.472656 1.90625 -12.546875 C 1.84375 -12.617188 1.6875 -12.671875 1.4375 -12.703125 L 1.4375 -12.953125 Z M 3.984375 -12.953125 "/></g></g></g><g fill="#000000" fill-opacity="1"><g transform="translate(89.454595, 89.405574)"><g/></g></g><g fill="#000000" fill-opacity="1"><g transform="translate(97.62561, 89.405574)"><g><path d="M 7.09375 -15.671875 C 7.8125 -15.671875 8.460938 -15.550781 9.046875 -15.3125 C 9.640625 -15.082031 10.148438 -14.84375 10.578125 -14.59375 C 10.703125 -14.519531 10.832031 -14.4375 10.96875 -14.34375 C 11.101562 -14.25 11.234375 -14.160156 11.359375 -14.078125 C 11.484375 -14.003906 11.59375 -13.9375 11.6875 -13.875 C 11.78125 -13.820312 11.847656 -13.796875 11.890625 -13.796875 C 11.992188 -13.796875 12.085938 -13.8125 12.171875 -13.84375 L 12.296875 -13.765625 L 10.765625 -11.46875 L 10.578125 -11.640625 C 10.617188 -11.765625 10.640625 -11.925781 10.640625 -12.125 C 10.640625 -12.25 10.546875 -12.425781 10.359375 -12.65625 C 10.179688 -12.894531 9.925781 -13.128906 9.59375 -13.359375 C 9.269531 -13.597656 8.878906 -13.800781 8.421875 -13.96875 C 7.960938 -14.144531 7.457031 -14.234375 6.90625 -14.234375 C 6.039062 -14.234375 5.316406 -14.019531 4.734375 -13.59375 C 4.148438 -13.175781 3.6875 -12.648438 3.34375 -12.015625 C 3 -11.378906 2.75 -10.675781 2.59375 -9.90625 C 2.445312 -9.144531 2.375 -8.421875 2.375 -7.734375 C 2.375 -6.960938 2.453125 -6.1875 2.609375 -5.40625 C 2.773438 -4.632812 3.035156 -3.941406 3.390625 -3.328125 C 3.742188 -2.710938 4.207031 -2.207031 4.78125 -1.8125 C 5.351562 -1.425781 6.0625 -1.234375 6.90625 -1.234375 C 7.382812 -1.234375 7.84375 -1.300781 8.28125 -1.4375 C 8.726562 -1.570312 9.125 -1.75 9.46875 -1.96875 C 9.820312 -2.195312 10.101562 -2.457031 10.3125 -2.75 C 10.53125 -3.039062 10.640625 -3.34375 10.640625 -3.65625 L 10.640625 -4.09375 L 10.8125 -4.1875 L 12.46875 -2.078125 L 12.3125 -2 L 12.265625 -2 C 12.253906 -2 12.238281 -2 12.21875 -2 C 12.207031 -2.007812 12.191406 -2.015625 12.171875 -2.015625 C 12.035156 -2.015625 11.863281 -1.925781 11.65625 -1.75 C 11.457031 -1.582031 11.265625 -1.429688 11.078125 -1.296875 C 10.472656 -0.796875 9.851562 -0.414062 9.21875 -0.15625 C 8.582031 0.09375 7.878906 0.21875 7.109375 0.21875 C 6.023438 0.21875 5.078125 0.015625 4.265625 -0.390625 C 3.460938 -0.804688 2.796875 -1.367188 2.265625 -2.078125 C 1.734375 -2.785156 1.332031 -3.625 1.0625 -4.59375 C 0.800781 -5.5625 0.671875 -6.609375 0.671875 -7.734375 C 0.671875 -8.835938 0.800781 -9.875 1.0625 -10.84375 C 1.332031 -11.8125 1.734375 -12.648438 2.265625 -13.359375 C 2.796875 -14.078125 3.457031 -14.640625 4.25 -15.046875 C 5.050781 -15.460938 6 -15.671875 7.09375 -15.671875 Z M 7.09375 -15.671875 "/></g></g></g><g fill="#000000" fill-opacity="1"><g transform="translate(112.29032, 89.405574)"><g><path d="M 2.25 -6.46875 C 2.25 -5.851562 2.328125 -5.222656 2.484375 -4.578125 C 2.648438 -3.929688 2.90625 -3.34375 3.25 -2.8125 C 3.59375 -2.28125 4.03125 -1.847656 4.5625 -1.515625 C 5.101562 -1.179688 5.75 -1.015625 6.5 -1.015625 C 7.21875 -1.015625 7.84375 -1.171875 8.375 -1.484375 C 8.914062 -1.804688 9.359375 -2.226562 9.703125 -2.75 C 10.054688 -3.269531 10.316406 -3.851562 10.484375 -4.5 C 10.660156 -5.15625 10.75 -5.8125 10.75 -6.46875 C 10.75 -7.125 10.660156 -7.773438 10.484375 -8.421875 C 10.316406 -9.078125 10.054688 -9.660156 9.703125 -10.171875 C 9.359375 -10.691406 8.914062 -11.113281 8.375 -11.4375 C 7.84375 -11.769531 7.207031 -11.9375 6.46875 -11.9375 C 5.738281 -11.9375 5.109375 -11.769531 4.578125 -11.4375 C 4.046875 -11.113281 3.601562 -10.691406 3.25 -10.171875 C 2.90625 -9.648438 2.648438 -9.0625 2.484375 -8.40625 C 2.328125 -7.757812 2.25 -7.113281 2.25 -6.46875 Z M 6.5 -13.171875 C 7.414062 -13.171875 8.226562 -12.972656 8.9375 -12.578125 C 9.644531 -12.191406 10.238281 -11.6875 10.71875 -11.0625 C 11.195312 -10.4375 11.5625 -9.71875 11.8125 -8.90625 C 12.0625 -8.101562 12.1875 -7.289062 12.1875 -6.46875 C 12.1875 -5.675781 12.066406 -4.882812 11.828125 -4.09375 C 11.597656 -3.300781 11.242188 -2.585938 10.765625 -1.953125 C 10.296875 -1.316406 9.703125 -0.796875 8.984375 -0.390625 C 8.273438 0.015625 7.445312 0.21875 6.5 0.21875 C 5.550781 0.21875 4.722656 0.015625 4.015625 -0.390625 C 3.304688 -0.796875 2.710938 -1.316406 2.234375 -1.953125 C 1.765625 -2.585938 1.410156 -3.300781 1.171875 -4.09375 C 0.929688 -4.882812 0.8125 -5.675781 0.8125 -6.46875 C 0.8125 -7.289062 0.929688 -8.101562 1.171875 -8.90625 C 1.421875 -9.707031 1.78125 -10.421875 2.25 -11.046875 C 2.726562 -11.679688 3.320312 -12.191406 4.03125 -12.578125 C 4.738281 -12.972656 5.5625 -13.171875 6.5 -13.171875 Z M 6.5 -13.171875 "/></g></g></g><g fill="#000000" fill-opacity="1"><g transform="translate(126.955031, 89.405574)"><g><path d="M 4.625 -12.953125 L 4.625 -12.703125 C 4.40625 -12.660156 4.296875 -12.566406 4.296875 -12.421875 C 4.296875 -12.347656 4.3125 -12.269531 4.34375 -12.1875 C 4.375 -12.113281 4.421875 -12.03125 4.484375 -11.9375 C 4.910156 -11.226562 5.320312 -10.535156 5.71875 -9.859375 C 6.113281 -9.191406 6.515625 -8.503906 6.921875 -7.796875 C 7.328125 -7.085938 7.753906 -6.347656 8.203125 -5.578125 C 8.648438 -4.804688 9.132812 -3.96875 9.65625 -3.0625 L 9.703125 -3.0625 L 9.703125 -12.171875 C 9.703125 -12.378906 9.671875 -12.507812 9.609375 -12.5625 C 9.554688 -12.625 9.425781 -12.671875 9.21875 -12.703125 L 9.21875 -12.953125 L 11.609375 -12.953125 L 11.609375 -12.703125 C 11.367188 -12.671875 11.21875 -12.625 11.15625 -12.5625 C 11.09375 -12.5 11.0625 -12.359375 11.0625 -12.140625 L 11.0625 -0.8125 C 11.0625 -0.613281 11.09375 -0.476562 11.15625 -0.40625 C 11.21875 -0.332031 11.367188 -0.28125 11.609375 -0.25 L 11.609375 0 L 9.09375 0 L 9.09375 -0.25 C 9.289062 -0.28125 9.410156 -0.316406 9.453125 -0.359375 C 9.503906 -0.398438 9.53125 -0.457031 9.53125 -0.53125 C 9.53125 -0.613281 9.5 -0.710938 9.4375 -0.828125 C 9.375 -0.941406 9.316406 -1.046875 9.265625 -1.140625 C 8.929688 -1.679688 8.585938 -2.25 8.234375 -2.84375 C 7.878906 -3.4375 7.539062 -4 7.21875 -4.53125 C 6.90625 -5.070312 6.617188 -5.5625 6.359375 -6 C 6.097656 -6.445312 5.90625 -6.78125 5.78125 -7 C 5.738281 -7.070312 5.671875 -7.191406 5.578125 -7.359375 C 5.484375 -7.523438 5.367188 -7.710938 5.234375 -7.921875 C 5.109375 -8.128906 4.972656 -8.359375 4.828125 -8.609375 C 4.679688 -8.859375 4.535156 -9.109375 4.390625 -9.359375 C 4.054688 -9.941406 3.691406 -10.585938 3.296875 -11.296875 L 3.234375 -11.296875 L 3.234375 -0.828125 C 3.234375 -0.617188 3.257812 -0.476562 3.3125 -0.40625 C 3.363281 -0.332031 3.515625 -0.28125 3.765625 -0.25 L 3.765625 0 L 1.359375 0 L 1.359375 -0.25 C 1.566406 -0.28125 1.703125 -0.320312 1.765625 -0.375 C 1.835938 -0.4375 1.875 -0.566406 1.875 -0.765625 L 1.875 -12.171875 C 1.875 -12.367188 1.847656 -12.5 1.796875 -12.5625 C 1.742188 -12.625 1.597656 -12.671875 1.359375 -12.703125 L 1.359375 -12.953125 Z M 4.625 -12.953125 "/></g></g></g><g fill="#000000" fill-opacity="1"><g transform="translate(141.619741, 89.405574)"><g><path d="M 2.25 -6.46875 C 2.25 -5.8125 2.332031 -5.15625 2.5 -4.5 C 2.675781 -3.851562 2.941406 -3.269531 3.296875 -2.75 C 3.648438 -2.226562 4.09375 -1.804688 4.625 -1.484375 C 5.15625 -1.171875 5.769531 -1.015625 6.46875 -1.015625 C 6.800781 -1.015625 7.085938 -1.039062 7.328125 -1.09375 C 7.566406 -1.144531 7.804688 -1.226562 8.046875 -1.34375 C 7.640625 -1.757812 7.273438 -2.054688 6.953125 -2.234375 C 6.628906 -2.410156 6.316406 -2.5 6.015625 -2.5 C 5.867188 -2.5 5.742188 -2.472656 5.640625 -2.421875 C 5.535156 -2.378906 5.445312 -2.359375 5.375 -2.359375 C 5.25 -2.359375 5.1875 -2.421875 5.1875 -2.546875 C 5.1875 -2.628906 5.234375 -2.71875 5.328125 -2.8125 C 5.429688 -2.90625 5.554688 -2.984375 5.703125 -3.046875 C 5.847656 -3.109375 6.007812 -3.160156 6.1875 -3.203125 C 6.363281 -3.242188 6.53125 -3.265625 6.6875 -3.265625 C 7 -3.265625 7.34375 -3.1875 7.71875 -3.03125 C 8.101562 -2.875 8.570312 -2.554688 9.125 -2.078125 C 9.632812 -2.554688 10.03125 -3.1875 10.3125 -3.96875 C 10.601562 -4.75 10.75 -5.582031 10.75 -6.46875 C 10.75 -7.082031 10.671875 -7.710938 10.515625 -8.359375 C 10.359375 -9.003906 10.101562 -9.59375 9.75 -10.125 C 9.40625 -10.65625 8.960938 -11.085938 8.421875 -11.421875 C 7.890625 -11.765625 7.238281 -11.9375 6.46875 -11.9375 C 5.769531 -11.9375 5.15625 -11.773438 4.625 -11.453125 C 4.09375 -11.140625 3.648438 -10.722656 3.296875 -10.203125 C 2.941406 -9.679688 2.675781 -9.09375 2.5 -8.4375 C 2.332031 -7.789062 2.25 -7.132812 2.25 -6.46875 Z M 6.5 -13.171875 C 7.4375 -13.171875 8.257812 -12.96875 8.96875 -12.5625 C 9.6875 -12.164062 10.28125 -11.648438 10.75 -11.015625 C 11.226562 -10.378906 11.585938 -9.664062 11.828125 -8.875 C 12.066406 -8.082031 12.1875 -7.28125 12.1875 -6.46875 C 12.1875 -5.476562 12.007812 -4.507812 11.65625 -3.5625 C 11.300781 -2.613281 10.765625 -1.820312 10.046875 -1.1875 C 10.328125 -0.90625 10.554688 -0.6875 10.734375 -0.53125 C 10.921875 -0.375 11.066406 -0.296875 11.171875 -0.296875 C 11.242188 -0.296875 11.3125 -0.316406 11.375 -0.359375 C 11.4375 -0.398438 11.484375 -0.429688 11.515625 -0.453125 L 11.65625 -0.3125 L 10.28125 1.234375 L 10.109375 1.078125 C 10.140625 0.992188 10.15625 0.910156 10.15625 0.828125 C 10.15625 0.703125 10.050781 0.550781 9.84375 0.375 C 9.632812 0.195312 9.347656 -0.0507812 8.984375 -0.375 C 8.640625 -0.195312 8.257812 -0.0546875 7.84375 0.046875 C 7.425781 0.160156 6.976562 0.21875 6.5 0.21875 C 5.5625 0.21875 4.734375 0.0195312 4.015625 -0.375 C 3.304688 -0.78125 2.710938 -1.300781 2.234375 -1.9375 C 1.765625 -2.570312 1.410156 -3.285156 1.171875 -4.078125 C 0.929688 -4.867188 0.8125 -5.664062 0.8125 -6.46875 C 0.8125 -7.289062 0.929688 -8.101562 1.171875 -8.90625 C 1.421875 -9.707031 1.78125 -10.421875 2.25 -11.046875 C 2.726562 -11.679688 3.320312 -12.191406 4.03125 -12.578125 C 4.738281 -12.972656 5.5625 -13.171875 6.5 -13.171875 Z M 6.5 -13.171875 "/></g></g></g><g fill="#000000" fill-opacity="1"><g transform="translate(156.284444, 89.405574)"><g><path d="M 3.90625 -12.953125 L 3.90625 -12.703125 C 3.664062 -12.671875 3.515625 -12.613281 3.453125 -12.53125 C 3.390625 -12.457031 3.359375 -12.320312 3.359375 -12.125 L 3.359375 -3.5 C 3.359375 -2.632812 3.585938 -2.003906 4.046875 -1.609375 C 4.515625 -1.210938 5.320312 -1.015625 6.46875 -1.015625 C 7.632812 -1.015625 8.445312 -1.21875 8.90625 -1.625 C 9.363281 -2.039062 9.59375 -2.664062 9.59375 -3.5 L 9.59375 -12.125 C 9.59375 -12.320312 9.5625 -12.457031 9.5 -12.53125 C 9.4375 -12.613281 9.285156 -12.671875 9.046875 -12.703125 L 9.046875 -12.953125 L 11.59375 -12.953125 L 11.59375 -12.703125 C 11.351562 -12.671875 11.203125 -12.613281 11.140625 -12.53125 C 11.078125 -12.457031 11.046875 -12.320312 11.046875 -12.125 L 11.046875 -3.5 C 11.046875 -1.019531 9.519531 0.21875 6.46875 0.21875 C 3.425781 0.21875 1.90625 -1.019531 1.90625 -3.5 L 1.90625 -12.125 C 1.90625 -12.320312 1.875 -12.457031 1.8125 -12.53125 C 1.75 -12.613281 1.597656 -12.671875 1.359375 -12.703125 L 1.359375 -12.953125 Z M 3.90625 -12.953125 "/></g></g></g><g fill="#000000" fill-opacity="1"><g transform="translate(170.949147, 89.405574)"><g><path d="M 4.21875 -12.953125 L 4.21875 -12.703125 C 4 -12.671875 3.851562 -12.625 3.78125 -12.5625 C 3.707031 -12.5 3.671875 -12.359375 3.671875 -12.140625 L 3.671875 -0.8125 C 3.671875 -0.59375 3.707031 -0.453125 3.78125 -0.390625 C 3.851562 -0.328125 4 -0.28125 4.21875 -0.25 L 4.21875 0 L 1.671875 0 L 1.671875 -0.25 C 1.890625 -0.28125 2.035156 -0.320312 2.109375 -0.375 C 2.191406 -0.4375 2.234375 -0.582031 2.234375 -0.8125 L 2.234375 -12.140625 C 2.234375 -12.359375 2.195312 -12.5 2.125 -12.5625 C 2.050781 -12.625 1.898438 -12.671875 1.671875 -12.703125 L 1.671875 -12.953125 Z M 4.21875 -12.953125 "/></g></g></g><g fill="#000000" fill-opacity="1"><g transform="translate(178.547172, 89.405574)"><g><path d="M 5.25 -13.171875 C 6.113281 -13.171875 6.832031 -13.054688 7.40625 -12.828125 C 7.976562 -12.597656 8.453125 -12.363281 8.828125 -12.125 C 9.128906 -11.9375 9.34375 -11.84375 9.46875 -11.84375 C 9.539062 -11.84375 9.59375 -11.851562 9.625 -11.875 C 9.664062 -11.894531 9.695312 -11.921875 9.71875 -11.953125 L 9.859375 -11.890625 L 8.890625 -9.890625 L 8.734375 -9.984375 C 8.734375 -10.335938 8.554688 -10.660156 8.203125 -10.953125 C 8.003906 -11.128906 7.769531 -11.273438 7.5 -11.390625 C 7.238281 -11.515625 6.972656 -11.617188 6.703125 -11.703125 C 6.441406 -11.785156 6.1875 -11.84375 5.9375 -11.875 C 5.6875 -11.914062 5.476562 -11.9375 5.3125 -11.9375 C 4.875 -11.9375 4.46875 -11.878906 4.09375 -11.765625 C 3.726562 -11.660156 3.410156 -11.507812 3.140625 -11.3125 C 2.867188 -11.113281 2.65625 -10.867188 2.5 -10.578125 C 2.34375 -10.296875 2.265625 -9.976562 2.265625 -9.625 C 2.265625 -8.96875 2.515625 -8.5 3.015625 -8.21875 C 3.523438 -7.945312 4.238281 -7.726562 5.15625 -7.5625 C 5.789062 -7.445312 6.394531 -7.3125 6.96875 -7.15625 C 7.539062 -7.007812 8.039062 -6.804688 8.46875 -6.546875 C 8.90625 -6.285156 9.253906 -5.9375 9.515625 -5.5 C 9.785156 -5.0625 9.921875 -4.492188 9.921875 -3.796875 C 9.921875 -3.117188 9.785156 -2.53125 9.515625 -2.03125 C 9.242188 -1.53125 8.890625 -1.113281 8.453125 -0.78125 C 8.015625 -0.445312 7.503906 -0.195312 6.921875 -0.03125 C 6.335938 0.132812 5.742188 0.21875 5.140625 0.21875 C 4.421875 0.21875 3.78125 0.125 3.21875 -0.0625 C 2.65625 -0.257812 2.15625 -0.460938 1.71875 -0.671875 C 1.46875 -0.804688 1.269531 -0.910156 1.125 -0.984375 C 0.976562 -1.066406 0.875 -1.109375 0.8125 -1.109375 C 0.738281 -1.109375 0.664062 -1.078125 0.59375 -1.015625 L 0.421875 -1.125 L 1.59375 -3.140625 L 1.78125 -3 C 1.78125 -2.976562 1.773438 -2.945312 1.765625 -2.90625 C 1.765625 -2.875 1.765625 -2.832031 1.765625 -2.78125 C 1.765625 -2.550781 1.875 -2.332031 2.09375 -2.125 C 2.3125 -1.914062 2.585938 -1.726562 2.921875 -1.5625 C 3.265625 -1.394531 3.648438 -1.257812 4.078125 -1.15625 C 4.503906 -1.0625 4.925781 -1.015625 5.34375 -1.015625 C 5.789062 -1.015625 6.203125 -1.070312 6.578125 -1.1875 C 6.953125 -1.3125 7.28125 -1.488281 7.5625 -1.71875 C 7.84375 -1.957031 8.0625 -2.242188 8.21875 -2.578125 C 8.382812 -2.910156 8.46875 -3.28125 8.46875 -3.6875 C 8.46875 -4.15625 8.375 -4.523438 8.1875 -4.796875 C 8 -5.078125 7.726562 -5.304688 7.375 -5.484375 C 7.03125 -5.660156 6.617188 -5.796875 6.140625 -5.890625 C 5.660156 -5.992188 5.117188 -6.097656 4.515625 -6.203125 C 3.210938 -6.429688 2.269531 -6.796875 1.6875 -7.296875 C 1.113281 -7.804688 0.828125 -8.582031 0.828125 -9.625 C 0.828125 -10.144531 0.953125 -10.625 1.203125 -11.0625 C 1.453125 -11.5 1.773438 -11.875 2.171875 -12.1875 C 2.578125 -12.5 3.046875 -12.738281 3.578125 -12.90625 C 4.109375 -13.082031 4.664062 -13.171875 5.25 -13.171875 Z M 5.25 -13.171875 "/></g></g></g><g fill="#000000" fill-opacity="1"><g transform="translate(190.856321, 89.405574)"><g><path d="M 0.46875 -13.328125 L 0.71875 -13.328125 C 0.75 -13.160156 0.804688 -13.054688 0.890625 -13.015625 C 0.972656 -12.972656 1.101562 -12.953125 1.28125 -12.953125 L 9.34375 -12.953125 C 9.539062 -12.953125 9.675781 -12.972656 9.75 -13.015625 C 9.820312 -13.066406 9.867188 -13.171875 9.890625 -13.328125 L 10.15625 -13.328125 L 10.15625 -11.34375 L 9.890625 -11.34375 C 9.867188 -11.507812 9.8125 -11.613281 9.71875 -11.65625 C 9.632812 -11.695312 9.507812 -11.71875 9.34375 -11.71875 L 6.03125 -11.71875 L 6.03125 -0.828125 C 6.03125 -0.628906 6.0625 -0.488281 6.125 -0.40625 C 6.1875 -0.332031 6.335938 -0.28125 6.578125 -0.25 L 6.578125 0 L 4.03125 0 L 4.03125 -0.25 C 4.257812 -0.28125 4.410156 -0.328125 4.484375 -0.390625 C 4.554688 -0.453125 4.59375 -0.597656 4.59375 -0.828125 L 4.59375 -11.71875 L 1.28125 -11.71875 C 1.101562 -11.71875 0.972656 -11.695312 0.890625 -11.65625 C 0.804688 -11.613281 0.75 -11.507812 0.71875 -11.34375 L 0.46875 -11.34375 Z M 0.46875 -13.328125 "/></g></g></g><g fill="#000000" fill-opacity="1"><g transform="translate(203.16547, 89.405574)"><g><path d="M 3.609375 -4.984375 L 8.046875 -4.984375 L 5.875 -11.9375 L 5.71875 -11.9375 Z M 7.53125 -12.953125 L 7.53125 -12.703125 C 7.332031 -12.703125 7.234375 -12.609375 7.234375 -12.421875 C 7.234375 -12.273438 7.40625 -11.648438 7.75 -10.546875 C 8.101562 -9.441406 8.640625 -7.738281 9.359375 -5.4375 C 9.773438 -4.101562 10.097656 -3.066406 10.328125 -2.328125 C 10.566406 -1.597656 10.71875 -1.125 10.78125 -0.90625 C 10.851562 -0.65625 10.9375 -0.488281 11.03125 -0.40625 C 11.125 -0.320312 11.234375 -0.269531 11.359375 -0.25 L 11.359375 0 L 9.109375 0 L 9.109375 -0.25 C 9.234375 -0.25 9.316406 -0.269531 9.359375 -0.3125 C 9.398438 -0.351562 9.421875 -0.40625 9.421875 -0.46875 C 9.421875 -0.539062 9.398438 -0.644531 9.359375 -0.78125 C 9.316406 -0.925781 9.257812 -1.097656 9.1875 -1.296875 C 9.125 -1.492188 9.023438 -1.796875 8.890625 -2.203125 C 8.765625 -2.617188 8.601562 -3.140625 8.40625 -3.765625 L 3.234375 -3.765625 L 2.703125 -2.015625 C 2.410156 -1.078125 2.265625 -0.5625 2.265625 -0.46875 C 2.265625 -0.40625 2.285156 -0.351562 2.328125 -0.3125 C 2.378906 -0.269531 2.472656 -0.25 2.609375 -0.25 L 2.609375 0 L 0.453125 0 L 0.453125 -0.25 C 0.648438 -0.25 0.773438 -0.296875 0.828125 -0.390625 C 0.878906 -0.484375 0.957031 -0.691406 1.0625 -1.015625 C 1.957031 -4.035156 2.675781 -6.390625 3.21875 -8.078125 C 3.757812 -9.765625 4.085938 -10.785156 4.203125 -11.140625 C 4.316406 -11.515625 4.40625 -11.796875 4.46875 -11.984375 C 4.53125 -12.171875 4.5625 -12.316406 4.5625 -12.421875 C 4.5625 -12.609375 4.445312 -12.703125 4.21875 -12.703125 L 4.21875 -12.953125 Z M 7.53125 -12.953125 "/></g></g></g><g fill="#000000" fill-opacity="1"><g transform="translate(216.663005, 89.405574)"><g><path d="M 5.515625 -1.234375 C 6.847656 -1.234375 7.867188 -1.660156 8.578125 -2.515625 C 9.285156 -3.367188 9.640625 -4.6875 9.640625 -6.46875 C 9.640625 -8.300781 9.273438 -9.632812 8.546875 -10.46875 C 7.816406 -11.300781 6.820312 -11.71875 5.5625 -11.71875 L 3.359375 -11.71875 L 3.359375 -1.234375 Z M 5.453125 -12.953125 C 7.191406 -12.953125 8.5625 -12.425781 9.5625 -11.375 C 10.570312 -10.332031 11.078125 -8.695312 11.078125 -6.46875 C 11.078125 -5.34375 10.945312 -4.367188 10.6875 -3.546875 C 10.425781 -2.734375 10.050781 -2.066406 9.5625 -1.546875 C 9.070312 -1.023438 8.472656 -0.632812 7.765625 -0.375 C 7.054688 -0.125 6.265625 0 5.390625 0 L 1.359375 0 L 1.359375 -0.25 C 1.597656 -0.28125 1.75 -0.332031 1.8125 -0.40625 C 1.875 -0.476562 1.90625 -0.613281 1.90625 -0.8125 L 1.90625 -12.140625 C 1.90625 -12.335938 1.875 -12.472656 1.8125 -12.546875 C 1.75 -12.617188 1.597656 -12.671875 1.359375 -12.703125 L 1.359375 -12.953125 Z M 5.453125 -12.953125 "/></g></g></g><g fill="#000000" fill-opacity="1"><g transform="translate(230.160541, 89.405574)"><g><path d="M 2.25 -6.46875 C 2.25 -5.851562 2.328125 -5.222656 2.484375 -4.578125 C 2.648438 -3.929688 2.90625 -3.34375 3.25 -2.8125 C 3.59375 -2.28125 4.03125 -1.847656 4.5625 -1.515625 C 5.101562 -1.179688 5.75 -1.015625 6.5 -1.015625 C 7.21875 -1.015625 7.84375 -1.171875 8.375 -1.484375 C 8.914062 -1.804688 9.359375 -2.226562 9.703125 -2.75 C 10.054688 -3.269531 10.316406 -3.851562 10.484375 -4.5 C 10.660156 -5.15625 10.75 -5.8125 10.75 -6.46875 C 10.75 -7.125 10.660156 -7.773438 10.484375 -8.421875 C 10.316406 -9.078125 10.054688 -9.660156 9.703125 -10.171875 C 9.359375 -10.691406 8.914062 -11.113281 8.375 -11.4375 C 7.84375 -11.769531 7.207031 -11.9375 6.46875 -11.9375 C 5.738281 -11.9375 5.109375 -11.769531 4.578125 -11.4375 C 4.046875 -11.113281 3.601562 -10.691406 3.25 -10.171875 C 2.90625 -9.648438 2.648438 -9.0625 2.484375 -8.40625 C 2.328125 -7.757812 2.25 -7.113281 2.25 -6.46875 Z M 6.5 -13.171875 C 7.414062 -13.171875 8.226562 -12.972656 8.9375 -12.578125 C 9.644531 -12.191406 10.238281 -11.6875 10.71875 -11.0625 C 11.195312 -10.4375 11.5625 -9.71875 11.8125 -8.90625 C 12.0625 -8.101562 12.1875 -7.289062 12.1875 -6.46875 C 12.1875 -5.675781 12.066406 -4.882812 11.828125 -4.09375 C 11.597656 -3.300781 11.242188 -2.585938 10.765625 -1.953125 C 10.296875 -1.316406 9.703125 -0.796875 8.984375 -0.390625 C 8.273438 0.015625 7.445312 0.21875 6.5 0.21875 C 5.550781 0.21875 4.722656 0.015625 4.015625 -0.390625 C 3.304688 -0.796875 2.710938 -1.316406 2.234375 -1.953125 C 1.765625 -2.585938 1.410156 -3.300781 1.171875 -4.09375 C 0.929688 -4.882812 0.8125 -5.675781 0.8125 -6.46875 C 0.8125 -7.289062 0.929688 -8.101562 1.171875 -8.90625 C 1.421875 -9.707031 1.78125 -10.421875 2.25 -11.046875 C 2.726562 -11.679688 3.320312 -12.191406 4.03125 -12.578125 C 4.738281 -12.972656 5.5625 -13.171875 6.5 -13.171875 Z M 6.5 -13.171875 "/></g></g></g><g fill="#000000" fill-opacity="1"><g transform="translate(244.825244, 89.405574)"><g><path d="M 6.40625 -6.96875 C 8.414062 -6.96875 9.421875 -7.753906 9.421875 -9.328125 C 9.421875 -10.085938 9.128906 -10.675781 8.546875 -11.09375 C 7.960938 -11.507812 7.195312 -11.71875 6.25 -11.71875 L 3.3125 -11.71875 L 3.3125 -6.96875 Z M 6.75 -12.953125 C 7.382812 -12.953125 7.957031 -12.859375 8.46875 -12.671875 C 8.976562 -12.492188 9.410156 -12.234375 9.765625 -11.890625 C 10.117188 -11.546875 10.390625 -11.144531 10.578125 -10.6875 C 10.773438 -10.226562 10.875 -9.722656 10.875 -9.171875 C 10.875 -8.335938 10.632812 -7.613281 10.15625 -7 C 9.6875 -6.394531 9.003906 -6.007812 8.109375 -5.84375 L 10.609375 -0.890625 C 10.722656 -0.648438 10.84375 -0.488281 10.96875 -0.40625 C 11.101562 -0.320312 11.285156 -0.265625 11.515625 -0.234375 L 11.515625 0 L 9 0 L 9 -0.25 C 9.15625 -0.3125 9.234375 -0.398438 9.234375 -0.515625 C 9.234375 -0.535156 9.21875 -0.578125 9.1875 -0.640625 C 9.164062 -0.710938 9.117188 -0.8125 9.046875 -0.9375 C 8.921875 -1.175781 8.75 -1.492188 8.53125 -1.890625 C 8.3125 -2.285156 8.03125 -2.820312 7.6875 -3.5 C 7.375 -4.09375 7.117188 -4.582031 6.921875 -4.96875 C 6.734375 -5.363281 6.613281 -5.617188 6.5625 -5.734375 L 3.3125 -5.734375 L 3.3125 -0.8125 C 3.3125 -0.625 3.335938 -0.488281 3.390625 -0.40625 C 3.441406 -0.332031 3.554688 -0.28125 3.734375 -0.25 L 3.734375 0 L 1.4375 0 L 1.4375 -0.25 C 1.625 -0.28125 1.742188 -0.332031 1.796875 -0.40625 C 1.847656 -0.488281 1.875 -0.625 1.875 -0.8125 L 1.875 -12.140625 C 1.875 -12.328125 1.847656 -12.457031 1.796875 -12.53125 C 1.742188 -12.613281 1.625 -12.671875 1.4375 -12.703125 L 1.4375 -12.953125 Z M 6.75 -12.953125 "/></g></g></g><g fill="#000000" fill-opacity="1"><g transform="translate(66.45566, 114.740155)"><g><path d="M 2.484375 -8.546875 L 2.484375 -8.40625 C 2.347656 -8.40625 2.253906 -8.375 2.203125 -8.3125 C 2.160156 -8.257812 2.140625 -8.15625 2.140625 -8 L 2.140625 -4.765625 L 6.34375 -4.765625 L 6.34375 -7.984375 C 6.34375 -8.140625 6.320312 -8.25 6.28125 -8.3125 C 6.25 -8.375 6.15625 -8.40625 6 -8.40625 L 6 -8.546875 L 7.640625 -8.546875 L 7.640625 -8.40625 C 7.492188 -8.40625 7.394531 -8.375 7.34375 -8.3125 C 7.300781 -8.257812 7.28125 -8.15625 7.28125 -8 L 7.28125 -0.546875 C 7.28125 -0.390625 7.300781 -0.285156 7.34375 -0.234375 C 7.394531 -0.179688 7.492188 -0.148438 7.640625 -0.140625 L 7.640625 0 L 6 0 L 6 -0.140625 C 6.132812 -0.148438 6.222656 -0.179688 6.265625 -0.234375 C 6.316406 -0.285156 6.34375 -0.390625 6.34375 -0.546875 L 6.34375 -3.96875 L 2.140625 -3.96875 L 2.140625 -0.546875 C 2.140625 -0.390625 2.160156 -0.285156 2.203125 -0.234375 C 2.253906 -0.179688 2.347656 -0.148438 2.484375 -0.140625 L 2.484375 0 L 0.84375 0 L 0.84375 -0.140625 C 0.988281 -0.148438 1.082031 -0.179688 1.125 -0.234375 C 1.175781 -0.285156 1.203125 -0.390625 1.203125 -0.546875 L 1.203125 -8 C 1.203125 -8.144531 1.179688 -8.25 1.140625 -8.3125 C 1.097656 -8.375 1 -8.40625 0.84375 -8.40625 L 0.84375 -8.546875 Z M 2.484375 -8.546875 "/></g></g></g><g fill="#000000" fill-opacity="1"><g transform="translate(79.440282, 114.740155)"><g><path d="M 1.25 -3.578125 C 1.25 -3.234375 1.289062 -2.882812 1.375 -2.53125 C 1.46875 -2.175781 1.609375 -1.847656 1.796875 -1.546875 C 1.984375 -1.253906 2.222656 -1.015625 2.515625 -0.828125 C 2.816406 -0.648438 3.175781 -0.5625 3.59375 -0.5625 C 3.988281 -0.5625 4.335938 -0.648438 4.640625 -0.828125 C 4.941406 -1.003906 5.1875 -1.234375 5.375 -1.515625 C 5.5625 -1.804688 5.703125 -2.128906 5.796875 -2.484375 C 5.898438 -2.847656 5.953125 -3.210938 5.953125 -3.578125 C 5.953125 -3.941406 5.898438 -4.300781 5.796875 -4.65625 C 5.703125 -5.019531 5.5625 -5.34375 5.375 -5.625 C 5.1875 -5.914062 4.941406 -6.148438 4.640625 -6.328125 C 4.335938 -6.515625 3.984375 -6.609375 3.578125 -6.609375 C 3.171875 -6.609375 2.820312 -6.515625 2.53125 -6.328125 C 2.238281 -6.148438 1.992188 -5.914062 1.796875 -5.625 C 1.609375 -5.332031 1.46875 -5.003906 1.375 -4.640625 C 1.289062 -4.285156 1.25 -3.929688 1.25 -3.578125 Z M 3.59375 -7.28125 C 4.101562 -7.28125 4.550781 -7.171875 4.9375 -6.953125 C 5.332031 -6.742188 5.660156 -6.46875 5.921875 -6.125 C 6.191406 -5.78125 6.394531 -5.382812 6.53125 -4.9375 C 6.675781 -4.488281 6.75 -4.035156 6.75 -3.578125 C 6.75 -3.140625 6.679688 -2.703125 6.546875 -2.265625 C 6.421875 -1.828125 6.222656 -1.429688 5.953125 -1.078125 C 5.691406 -0.722656 5.363281 -0.429688 4.96875 -0.203125 C 4.570312 0.015625 4.113281 0.125 3.59375 0.125 C 3.070312 0.125 2.613281 0.015625 2.21875 -0.203125 C 1.832031 -0.429688 1.503906 -0.722656 1.234375 -1.078125 C 0.972656 -1.429688 0.773438 -1.828125 0.640625 -2.265625 C 0.515625 -2.703125 0.453125 -3.140625 0.453125 -3.578125 C 0.453125 -4.035156 0.519531 -4.484375 0.65625 -4.921875 C 0.789062 -5.367188 0.988281 -5.765625 1.25 -6.109375 C 1.507812 -6.460938 1.832031 -6.742188 2.21875 -6.953125 C 2.613281 -7.171875 3.070312 -7.28125 3.59375 -7.28125 Z M 3.59375 -7.28125 "/></g></g></g><g fill="#000000" fill-opacity="1"><g transform="translate(91.120557, 114.740155)"><g><path d="M 0.265625 -7.375 L 0.40625 -7.375 C 0.414062 -7.28125 0.441406 -7.222656 0.484375 -7.203125 C 0.535156 -7.179688 0.609375 -7.171875 0.703125 -7.171875 L 5.171875 -7.171875 C 5.273438 -7.171875 5.347656 -7.179688 5.390625 -7.203125 C 5.429688 -7.234375 5.457031 -7.289062 5.46875 -7.375 L 5.609375 -7.375 L 5.609375 -6.28125 L 5.46875 -6.28125 C 5.457031 -6.375 5.425781 -6.429688 5.375 -6.453125 C 5.332031 -6.472656 5.265625 -6.484375 5.171875 -6.484375 L 3.34375 -6.484375 L 3.34375 -0.453125 C 3.34375 -0.347656 3.359375 -0.273438 3.390625 -0.234375 C 3.421875 -0.191406 3.503906 -0.160156 3.640625 -0.140625 L 3.640625 0 L 2.234375 0 L 2.234375 -0.140625 C 2.359375 -0.160156 2.4375 -0.1875 2.46875 -0.21875 C 2.507812 -0.25 2.53125 -0.328125 2.53125 -0.453125 L 2.53125 -6.484375 L 0.703125 -6.484375 C 0.609375 -6.484375 0.535156 -6.472656 0.484375 -6.453125 C 0.441406 -6.429688 0.414062 -6.375 0.40625 -6.28125 L 0.265625 -6.28125 Z M 0.265625 -7.375 "/></g></g></g><g fill="#000000" fill-opacity="1"><g transform="translate(101.4965, 114.740155)"><g><path d="M 5.90625 -7.375 L 5.90625 -6.28125 L 5.765625 -6.28125 C 5.753906 -6.375 5.722656 -6.429688 5.671875 -6.453125 C 5.617188 -6.472656 5.546875 -6.484375 5.453125 -6.484375 L 1.90625 -6.484375 L 1.90625 -4.046875 L 4.296875 -4.046875 C 4.390625 -4.046875 4.457031 -4.054688 4.5 -4.078125 C 4.550781 -4.097656 4.585938 -4.15625 4.609375 -4.25 L 4.75 -4.25 L 4.75 -3.15625 L 4.609375 -3.15625 C 4.585938 -3.25 4.550781 -3.304688 4.5 -3.328125 C 4.457031 -3.347656 4.394531 -3.359375 4.3125 -3.359375 L 1.90625 -3.359375 L 1.90625 -0.6875 L 5.5625 -0.6875 C 5.644531 -0.6875 5.707031 -0.695312 5.75 -0.71875 C 5.800781 -0.738281 5.832031 -0.796875 5.84375 -0.890625 L 6 -0.890625 L 6 0.21875 L 5.84375 0.21875 C 5.832031 0.125 5.800781 0.0625 5.75 0.03125 C 5.707031 0.0078125 5.644531 0 5.5625 0 L 0.796875 0 L 0.796875 -0.140625 C 0.910156 -0.148438 0.988281 -0.164062 1.03125 -0.1875 C 1.082031 -0.21875 1.109375 -0.289062 1.109375 -0.40625 L 1.109375 -6.75 C 1.109375 -6.863281 1.085938 -6.9375 1.046875 -6.96875 C 1.003906 -7.007812 0.921875 -7.03125 0.796875 -7.03125 L 0.796875 -7.171875 L 5.453125 -7.171875 C 5.554688 -7.171875 5.628906 -7.179688 5.671875 -7.203125 C 5.722656 -7.222656 5.753906 -7.28125 5.765625 -7.375 Z M 5.90625 -7.375 "/></g></g></g><g fill="#000000" fill-opacity="1"><g transform="translate(112.530481, 114.740155)"><g><path d="M 2.203125 -7.171875 L 2.203125 -7.03125 C 2.078125 -7.007812 1.992188 -6.976562 1.953125 -6.9375 C 1.921875 -6.90625 1.90625 -6.832031 1.90625 -6.71875 L 1.90625 -0.6875 L 5.21875 -0.6875 C 5.320312 -0.6875 5.394531 -0.695312 5.4375 -0.71875 C 5.476562 -0.738281 5.503906 -0.796875 5.515625 -0.890625 L 5.65625 -0.890625 L 5.65625 0.21875 L 5.515625 0.21875 C 5.503906 0.125 5.472656 0.0625 5.421875 0.03125 C 5.378906 0.0078125 5.3125 0 5.21875 0 L 0.796875 0 L 0.796875 -0.140625 C 0.929688 -0.160156 1.015625 -0.1875 1.046875 -0.21875 C 1.085938 -0.257812 1.109375 -0.335938 1.109375 -0.453125 L 1.109375 -6.71875 C 1.109375 -6.832031 1.085938 -6.90625 1.046875 -6.9375 C 1.015625 -6.976562 0.929688 -7.007812 0.796875 -7.03125 L 0.796875 -7.171875 Z M 2.203125 -7.171875 "/></g></g></g><g fill="#000000" fill-opacity="1"><g transform="translate(122.906424, 114.740155)"><g/></g></g><g fill="#000000" fill-opacity="1"><g transform="translate(130.990948, 114.740155)"><g><path d="M 1.578125 -2.6875 C 1.578125 -2.050781 1.710938 -1.554688 1.984375 -1.203125 C 2.253906 -0.859375 2.65625 -0.6875 3.1875 -0.6875 C 3.414062 -0.6875 3.628906 -0.734375 3.828125 -0.828125 C 4.035156 -0.929688 4.210938 -1.066406 4.359375 -1.234375 C 4.503906 -1.410156 4.613281 -1.609375 4.6875 -1.828125 C 4.769531 -2.046875 4.8125 -2.273438 4.8125 -2.515625 C 4.8125 -2.742188 4.765625 -2.972656 4.671875 -3.203125 C 4.585938 -3.429688 4.46875 -3.632812 4.3125 -3.8125 C 4.164062 -4 3.988281 -4.148438 3.78125 -4.265625 C 3.582031 -4.378906 3.363281 -4.4375 3.125 -4.4375 C 2.894531 -4.4375 2.6875 -4.382812 2.5 -4.28125 C 2.3125 -4.175781 2.148438 -4.039062 2.015625 -3.875 C 1.878906 -3.707031 1.769531 -3.519531 1.6875 -3.3125 C 1.613281 -3.113281 1.578125 -2.90625 1.578125 -2.6875 Z M 2.1875 -6.59375 C 2.1875 -6.414062 2.210938 -6.242188 2.265625 -6.078125 C 2.316406 -5.921875 2.394531 -5.78125 2.5 -5.65625 C 2.601562 -5.53125 2.726562 -5.425781 2.875 -5.34375 C 3.019531 -5.269531 3.175781 -5.234375 3.34375 -5.234375 C 3.519531 -5.234375 3.679688 -5.269531 3.828125 -5.34375 C 3.972656 -5.425781 4.09375 -5.53125 4.1875 -5.65625 C 4.289062 -5.78125 4.367188 -5.921875 4.421875 -6.078125 C 4.484375 -6.242188 4.515625 -6.414062 4.515625 -6.59375 C 4.515625 -6.769531 4.484375 -6.941406 4.421875 -7.109375 C 4.367188 -7.273438 4.289062 -7.414062 4.1875 -7.53125 C 4.09375 -7.65625 3.972656 -7.753906 3.828125 -7.828125 C 3.679688 -7.898438 3.519531 -7.9375 3.34375 -7.9375 C 3.164062 -7.9375 3.003906 -7.898438 2.859375 -7.828125 C 2.722656 -7.753906 2.601562 -7.65625 2.5 -7.53125 C 2.394531 -7.414062 2.316406 -7.273438 2.265625 -7.109375 C 2.210938 -6.941406 2.1875 -6.769531 2.1875 -6.59375 Z M 3.34375 -8.671875 C 3.644531 -8.671875 3.914062 -8.625 4.15625 -8.53125 C 4.40625 -8.4375 4.617188 -8.300781 4.796875 -8.125 C 4.972656 -7.945312 5.109375 -7.734375 5.203125 -7.484375 C 5.304688 -7.242188 5.359375 -6.984375 5.359375 -6.703125 C 5.359375 -6.304688 5.257812 -5.945312 5.0625 -5.625 C 4.863281 -5.300781 4.570312 -5.0625 4.1875 -4.90625 C 4.5 -4.78125 4.757812 -4.585938 4.96875 -4.328125 C 5.175781 -4.078125 5.320312 -3.796875 5.40625 -3.484375 L 5.421875 -3.484375 C 5.484375 -3.679688 5.5625 -3.863281 5.65625 -4.03125 C 5.75 -4.207031 5.84375 -4.367188 5.9375 -4.515625 C 6.039062 -4.660156 6.144531 -4.789062 6.25 -4.90625 C 6.363281 -5.019531 6.46875 -5.113281 6.5625 -5.1875 C 6.707031 -5.3125 6.835938 -5.414062 6.953125 -5.5 C 6.984375 -5.519531 7.007812 -5.566406 7.03125 -5.640625 C 7.03125 -5.679688 7.039062 -5.71875 7.0625 -5.75 L 7.203125 -5.75 L 7.203125 -4.046875 L 7.0625 -4.046875 L 7.046875 -4.125 C 7.035156 -4.1875 7.007812 -4.21875 6.96875 -4.21875 C 6.914062 -4.21875 6.859375 -4.191406 6.796875 -4.140625 C 6.734375 -4.085938 6.660156 -4 6.578125 -3.875 C 6.535156 -3.832031 6.492188 -3.769531 6.453125 -3.6875 C 6.410156 -3.613281 6.363281 -3.535156 6.3125 -3.453125 C 6.269531 -3.378906 6.226562 -3.300781 6.1875 -3.21875 C 6.15625 -3.132812 6.125 -3.066406 6.09375 -3.015625 C 6.007812 -2.816406 5.945312 -2.660156 5.90625 -2.546875 C 5.875 -2.441406 5.859375 -2.375 5.859375 -2.34375 C 5.859375 -2.238281 5.878906 -2.101562 5.921875 -1.9375 C 5.972656 -1.78125 6.054688 -1.613281 6.171875 -1.4375 C 6.273438 -1.269531 6.378906 -1.132812 6.484375 -1.03125 C 6.597656 -0.925781 6.707031 -0.875 6.8125 -0.875 C 6.957031 -0.875 7.039062 -0.953125 7.0625 -1.109375 L 7.203125 -1.109375 L 7.203125 0 L 6.796875 0 C 6.671875 0 6.53125 -0.015625 6.375 -0.046875 C 6.226562 -0.078125 6.078125 -0.160156 5.921875 -0.296875 C 5.785156 -0.398438 5.664062 -0.539062 5.5625 -0.71875 C 5.46875 -0.90625 5.398438 -1.101562 5.359375 -1.3125 L 5.328125 -1.3125 C 5.128906 -0.851562 4.84375 -0.5 4.46875 -0.25 C 4.101562 0 3.675781 0.125 3.1875 0.125 C 2.8125 0.125 2.46875 0.0625 2.15625 -0.0625 C 1.84375 -0.195312 1.570312 -0.375 1.34375 -0.59375 C 1.125 -0.8125 0.953125 -1.078125 0.828125 -1.390625 C 0.703125 -1.710938 0.640625 -2.054688 0.640625 -2.421875 C 0.640625 -3.003906 0.773438 -3.519531 1.046875 -3.96875 C 1.328125 -4.414062 1.75 -4.75 2.3125 -4.96875 C 2 -5.144531 1.757812 -5.390625 1.59375 -5.703125 C 1.425781 -6.015625 1.34375 -6.347656 1.34375 -6.703125 C 1.34375 -6.960938 1.390625 -7.210938 1.484375 -7.453125 C 1.585938 -7.691406 1.726562 -7.898438 1.90625 -8.078125 C 2.082031 -8.265625 2.289062 -8.410156 2.53125 -8.515625 C 2.78125 -8.617188 3.050781 -8.671875 3.34375 -8.671875 Z M 3.34375 -8.671875 "/></g></g></g><g fill="#000000" fill-opacity="1"><g transform="translate(143.329276, 114.740155)"><g/></g></g><g fill="#000000" fill-opacity="1"><g transform="translate(151.413799, 114.740155)"><g><path d="M 3.578125 -8.671875 C 4.109375 -8.671875 4.5625 -8.59375 4.9375 -8.4375 C 5.320312 -8.289062 5.660156 -8.132812 5.953125 -7.96875 C 6.046875 -7.914062 6.128906 -7.875 6.203125 -7.84375 C 6.273438 -7.8125 6.332031 -7.796875 6.375 -7.796875 C 6.40625 -7.796875 6.453125 -7.820312 6.515625 -7.875 L 6.59375 -7.84375 L 5.890625 -6.515625 L 5.796875 -6.5625 C 5.796875 -6.75 5.722656 -6.921875 5.578125 -7.078125 C 5.441406 -7.234375 5.269531 -7.367188 5.0625 -7.484375 C 4.851562 -7.609375 4.613281 -7.703125 4.34375 -7.765625 C 4.082031 -7.835938 3.828125 -7.875 3.578125 -7.875 C 3.234375 -7.875 2.9375 -7.828125 2.6875 -7.734375 C 2.4375 -7.648438 2.226562 -7.535156 2.0625 -7.390625 C 1.90625 -7.242188 1.785156 -7.078125 1.703125 -6.890625 C 1.617188 -6.703125 1.578125 -6.515625 1.578125 -6.328125 C 1.578125 -6.109375 1.617188 -5.925781 1.703125 -5.78125 C 1.785156 -5.632812 1.910156 -5.507812 2.078125 -5.40625 C 2.253906 -5.300781 2.460938 -5.21875 2.703125 -5.15625 C 2.941406 -5.09375 3.21875 -5.035156 3.53125 -4.984375 C 3.894531 -4.921875 4.257812 -4.847656 4.625 -4.765625 C 4.988281 -4.679688 5.316406 -4.550781 5.609375 -4.375 C 5.898438 -4.195312 6.140625 -3.957031 6.328125 -3.65625 C 6.515625 -3.351562 6.609375 -2.945312 6.609375 -2.4375 C 6.609375 -2.0625 6.53125 -1.71875 6.375 -1.40625 C 6.21875 -1.09375 6.003906 -0.820312 5.734375 -0.59375 C 5.460938 -0.375 5.140625 -0.195312 4.765625 -0.0625 C 4.398438 0.0625 4.003906 0.125 3.578125 0.125 C 3.253906 0.125 2.957031 0.09375 2.6875 0.03125 C 2.414062 -0.0195312 2.175781 -0.0820312 1.96875 -0.15625 C 1.769531 -0.238281 1.597656 -0.316406 1.453125 -0.390625 C 1.316406 -0.460938 1.210938 -0.519531 1.140625 -0.5625 C 1.003906 -0.644531 0.898438 -0.707031 0.828125 -0.75 C 0.765625 -0.800781 0.71875 -0.828125 0.6875 -0.828125 C 0.65625 -0.828125 0.625 -0.816406 0.59375 -0.796875 C 0.570312 -0.785156 0.546875 -0.769531 0.515625 -0.75 L 0.453125 -0.828125 L 1.1875 -2.125 L 1.265625 -2.0625 C 1.253906 -2.039062 1.25 -2.019531 1.25 -2 C 1.25 -1.820312 1.332031 -1.648438 1.5 -1.484375 C 1.664062 -1.328125 1.863281 -1.1875 2.09375 -1.0625 C 2.332031 -0.945312 2.582031 -0.851562 2.84375 -0.78125 C 3.113281 -0.71875 3.34375 -0.6875 3.53125 -0.6875 C 3.789062 -0.6875 4.046875 -0.71875 4.296875 -0.78125 C 4.546875 -0.84375 4.769531 -0.945312 4.96875 -1.09375 C 5.175781 -1.238281 5.34375 -1.425781 5.46875 -1.65625 C 5.59375 -1.882812 5.65625 -2.160156 5.65625 -2.484375 C 5.65625 -2.753906 5.597656 -2.976562 5.484375 -3.15625 C 5.378906 -3.332031 5.222656 -3.476562 5.015625 -3.59375 C 4.816406 -3.707031 4.582031 -3.796875 4.3125 -3.859375 C 4.039062 -3.929688 3.75 -3.992188 3.4375 -4.046875 C 3.0625 -4.109375 2.703125 -4.179688 2.359375 -4.265625 C 2.023438 -4.359375 1.726562 -4.484375 1.46875 -4.640625 C 1.21875 -4.804688 1.015625 -5.019531 0.859375 -5.28125 C 0.710938 -5.550781 0.640625 -5.898438 0.640625 -6.328125 C 0.640625 -6.628906 0.703125 -6.921875 0.828125 -7.203125 C 0.953125 -7.492188 1.140625 -7.742188 1.390625 -7.953125 C 1.648438 -8.171875 1.957031 -8.34375 2.3125 -8.46875 C 2.675781 -8.601562 3.097656 -8.671875 3.578125 -8.671875 Z M 3.578125 -8.671875 "/></g></g></g><g fill="#000000" fill-opacity="1"><g transform="translate(163.094074, 114.740155)"><g><path d="M 2.15625 -7.171875 L 2.15625 -7.03125 C 2.03125 -7.007812 1.945312 -6.976562 1.90625 -6.9375 C 1.875 -6.894531 1.859375 -6.816406 1.859375 -6.703125 L 1.859375 -1.9375 C 1.859375 -1.457031 1.984375 -1.109375 2.234375 -0.890625 C 2.492188 -0.671875 2.941406 -0.5625 3.578125 -0.5625 C 4.222656 -0.5625 4.671875 -0.675781 4.921875 -0.90625 C 5.179688 -1.132812 5.3125 -1.476562 5.3125 -1.9375 L 5.3125 -6.703125 C 5.3125 -6.816406 5.289062 -6.894531 5.25 -6.9375 C 5.21875 -6.976562 5.132812 -7.007812 5 -7.03125 L 5 -7.171875 L 6.421875 -7.171875 L 6.421875 -7.03125 C 6.285156 -7.007812 6.195312 -6.976562 6.15625 -6.9375 C 6.125 -6.894531 6.109375 -6.816406 6.109375 -6.703125 L 6.109375 -1.9375 C 6.109375 -0.5625 5.265625 0.125 3.578125 0.125 C 1.898438 0.125 1.0625 -0.5625 1.0625 -1.9375 L 1.0625 -6.703125 C 1.0625 -6.816406 1.039062 -6.894531 1 -6.9375 C 0.96875 -6.976562 0.882812 -7.007812 0.75 -7.03125 L 0.75 -7.171875 Z M 2.15625 -7.171875 "/></g></g></g><g fill="#000000" fill-opacity="1"><g transform="translate(174.774349, 114.740155)"><g><path d="M 2.34375 -7.171875 L 2.34375 -7.03125 C 2.21875 -7.007812 2.132812 -6.976562 2.09375 -6.9375 C 2.050781 -6.90625 2.03125 -6.832031 2.03125 -6.71875 L 2.03125 -0.453125 C 2.03125 -0.328125 2.050781 -0.25 2.09375 -0.21875 C 2.132812 -0.1875 2.21875 -0.160156 2.34375 -0.140625 L 2.34375 0 L 0.921875 0 L 0.921875 -0.140625 C 1.046875 -0.160156 1.128906 -0.1875 1.171875 -0.21875 C 1.210938 -0.25 1.234375 -0.328125 1.234375 -0.453125 L 1.234375 -6.71875 C 1.234375 -6.832031 1.210938 -6.90625 1.171875 -6.9375 C 1.128906 -6.976562 1.046875 -7.007812 0.921875 -7.03125 L 0.921875 -7.171875 Z M 2.34375 -7.171875 "/></g></g></g><g fill="#000000" fill-opacity="1"><g transform="translate(182.541613, 114.740155)"><g><path d="M 0.265625 -7.375 L 0.40625 -7.375 C 0.414062 -7.28125 0.441406 -7.222656 0.484375 -7.203125 C 0.535156 -7.179688 0.609375 -7.171875 0.703125 -7.171875 L 5.171875 -7.171875 C 5.273438 -7.171875 5.347656 -7.179688 5.390625 -7.203125 C 5.429688 -7.234375 5.457031 -7.289062 5.46875 -7.375 L 5.609375 -7.375 L 5.609375 -6.28125 L 5.46875 -6.28125 C 5.457031 -6.375 5.425781 -6.429688 5.375 -6.453125 C 5.332031 -6.472656 5.265625 -6.484375 5.171875 -6.484375 L 3.34375 -6.484375 L 3.34375 -0.453125 C 3.34375 -0.347656 3.359375 -0.273438 3.390625 -0.234375 C 3.421875 -0.191406 3.503906 -0.160156 3.640625 -0.140625 L 3.640625 0 L 2.234375 0 L 2.234375 -0.140625 C 2.359375 -0.160156 2.4375 -0.1875 2.46875 -0.21875 C 2.507812 -0.25 2.53125 -0.328125 2.53125 -0.453125 L 2.53125 -6.484375 L 0.703125 -6.484375 C 0.609375 -6.484375 0.535156 -6.472656 0.484375 -6.453125 C 0.441406 -6.429688 0.414062 -6.375 0.40625 -6.28125 L 0.265625 -6.28125 Z M 0.265625 -7.375 "/></g></g></g><g fill="#000000" fill-opacity="1"><g transform="translate(192.917556, 114.740155)"><g><path d="M 5.90625 -7.375 L 5.90625 -6.28125 L 5.765625 -6.28125 C 5.753906 -6.375 5.722656 -6.429688 5.671875 -6.453125 C 5.617188 -6.472656 5.546875 -6.484375 5.453125 -6.484375 L 1.90625 -6.484375 L 1.90625 -4.046875 L 4.296875 -4.046875 C 4.390625 -4.046875 4.457031 -4.054688 4.5 -4.078125 C 4.550781 -4.097656 4.585938 -4.15625 4.609375 -4.25 L 4.75 -4.25 L 4.75 -3.15625 L 4.609375 -3.15625 C 4.585938 -3.25 4.550781 -3.304688 4.5 -3.328125 C 4.457031 -3.347656 4.394531 -3.359375 4.3125 -3.359375 L 1.90625 -3.359375 L 1.90625 -0.6875 L 5.5625 -0.6875 C 5.644531 -0.6875 5.707031 -0.695312 5.75 -0.71875 C 5.800781 -0.738281 5.832031 -0.796875 5.84375 -0.890625 L 6 -0.890625 L 6 0.21875 L 5.84375 0.21875 C 5.832031 0.125 5.800781 0.0625 5.75 0.03125 C 5.707031 0.0078125 5.644531 0 5.5625 0 L 0.796875 0 L 0.796875 -0.140625 C 0.910156 -0.148438 0.988281 -0.164062 1.03125 -0.1875 C 1.082031 -0.21875 1.109375 -0.289062 1.109375 -0.40625 L 1.109375 -6.75 C 1.109375 -6.863281 1.085938 -6.9375 1.046875 -6.96875 C 1.003906 -7.007812 0.921875 -7.03125 0.796875 -7.03125 L 0.796875 -7.171875 L 5.453125 -7.171875 C 5.554688 -7.171875 5.628906 -7.179688 5.671875 -7.203125 C 5.722656 -7.222656 5.753906 -7.28125 5.765625 -7.375 Z M 5.90625 -7.375 "/></g></g></g><g fill="#000000" fill-opacity="1"><g transform="translate(203.951544, 114.740155)"><g><path d="M 2.90625 -7.28125 C 3.382812 -7.28125 3.78125 -7.21875 4.09375 -7.09375 C 4.414062 -6.96875 4.679688 -6.835938 4.890625 -6.703125 C 5.054688 -6.609375 5.171875 -6.5625 5.234375 -6.5625 C 5.273438 -6.5625 5.304688 -6.566406 5.328125 -6.578125 C 5.347656 -6.585938 5.363281 -6.597656 5.375 -6.609375 L 5.453125 -6.578125 L 4.921875 -5.46875 L 4.828125 -5.515625 C 4.828125 -5.710938 4.726562 -5.894531 4.53125 -6.0625 C 4.425781 -6.15625 4.300781 -6.234375 4.15625 -6.296875 C 4.007812 -6.367188 3.859375 -6.425781 3.703125 -6.46875 C 3.554688 -6.519531 3.414062 -6.554688 3.28125 -6.578125 C 3.144531 -6.597656 3.03125 -6.609375 2.9375 -6.609375 C 2.695312 -6.609375 2.472656 -6.578125 2.265625 -6.515625 C 2.066406 -6.453125 1.890625 -6.363281 1.734375 -6.25 C 1.585938 -6.144531 1.46875 -6.007812 1.375 -5.84375 C 1.289062 -5.6875 1.25 -5.515625 1.25 -5.328125 C 1.25 -4.960938 1.390625 -4.703125 1.671875 -4.546875 C 1.953125 -4.398438 2.347656 -4.28125 2.859375 -4.1875 C 3.210938 -4.125 3.546875 -4.050781 3.859375 -3.96875 C 4.171875 -3.882812 4.445312 -3.769531 4.6875 -3.625 C 4.925781 -3.476562 5.117188 -3.28125 5.265625 -3.03125 C 5.410156 -2.789062 5.484375 -2.484375 5.484375 -2.109375 C 5.484375 -1.734375 5.410156 -1.40625 5.265625 -1.125 C 5.117188 -0.84375 4.921875 -0.609375 4.671875 -0.421875 C 4.429688 -0.242188 4.148438 -0.109375 3.828125 -0.015625 C 3.503906 0.078125 3.175781 0.125 2.84375 0.125 C 2.445312 0.125 2.09375 0.0703125 1.78125 -0.03125 C 1.46875 -0.144531 1.191406 -0.257812 0.953125 -0.375 C 0.804688 -0.445312 0.691406 -0.503906 0.609375 -0.546875 C 0.535156 -0.585938 0.484375 -0.609375 0.453125 -0.609375 C 0.410156 -0.609375 0.367188 -0.59375 0.328125 -0.5625 L 0.234375 -0.625 L 0.875 -1.734375 L 0.984375 -1.65625 C 0.984375 -1.644531 0.976562 -1.628906 0.96875 -1.609375 C 0.96875 -1.597656 0.96875 -1.578125 0.96875 -1.546875 C 0.96875 -1.410156 1.03125 -1.285156 1.15625 -1.171875 C 1.28125 -1.054688 1.4375 -0.953125 1.625 -0.859375 C 1.8125 -0.773438 2.019531 -0.703125 2.25 -0.640625 C 2.488281 -0.585938 2.726562 -0.5625 2.96875 -0.5625 C 3.207031 -0.5625 3.429688 -0.59375 3.640625 -0.65625 C 3.847656 -0.726562 4.03125 -0.828125 4.1875 -0.953125 C 4.34375 -1.085938 4.460938 -1.242188 4.546875 -1.421875 C 4.640625 -1.609375 4.6875 -1.816406 4.6875 -2.046875 C 4.6875 -2.304688 4.632812 -2.507812 4.53125 -2.65625 C 4.425781 -2.8125 4.273438 -2.9375 4.078125 -3.03125 C 3.890625 -3.132812 3.660156 -3.210938 3.390625 -3.265625 C 3.128906 -3.316406 2.832031 -3.375 2.5 -3.4375 C 1.78125 -3.5625 1.257812 -3.765625 0.9375 -4.046875 C 0.613281 -4.328125 0.453125 -4.753906 0.453125 -5.328125 C 0.453125 -5.609375 0.519531 -5.867188 0.65625 -6.109375 C 0.800781 -6.359375 0.984375 -6.566406 1.203125 -6.734375 C 1.429688 -6.910156 1.691406 -7.046875 1.984375 -7.140625 C 2.273438 -7.234375 2.582031 -7.28125 2.90625 -7.28125 Z M 2.90625 -7.28125 "/></g></g></g></svg>